<?xml version="1.0" encoding="UTF-8"?> <svg xmlns="http://www.w3.org/2000/svg" width="232" height="232" viewBox="0 0 232 232" fill="none"> <circle cx="116" cy="116" r="116" fill="#FEEF34"></circle> <g clip-path="url(#clip0_22_318)"> <path d="M102.156 36.9064C100.938 37.2502 99.5312 37.7189 99.0312 37.9689C98.3438 38.3439 97.375 38.4064 94.875 38.2814C89.6562 38.0314 85.4688 39.3439 81.6875 42.4689C80.7812 43.2189 79.125 44.3439 78.0625 44.9689C74.0312 47.3439 70.4375 52.2189 69.4375 56.7189C69.1875 57.7814 68.875 60.3752 68.75 62.4689C68.5625 66.2502 68.5312 66.2814 67.6875 66.6252C65.5625 67.5002 64.5625 69.6252 64.5625 73.1877C64.5625 76.0627 65.1875 77.7189 66.75 78.8752L67.6875 79.5627V84.8752C67.6875 88.7189 67.5625 90.5627 67.2188 91.4689C66.5312 93.3752 66.625 96.9064 67.4375 99.0314C68.5938 102.156 72.125 105.031 75.4688 105.563L76.75 105.781V107.875C76.75 115.969 80.5938 124.594 86.9375 130.688L89.5625 133.188V137.813V142.438L81.1875 145.844C70.5312 150.156 67.7188 151.469 64.8438 153.406C61.4688 155.688 60.5 156.688 60.5 157.844C60.5 159.844 62.875 160.781 64.5625 159.406C66.3438 158 69.0312 156.25 71.0312 155.25C73.4062 154.063 86.4375 148.719 86.5938 148.875C86.6562 148.938 90.7812 159.219 95.8125 171.781C101.469 185.969 105.156 194.813 105.562 195.156C106.438 195.875 107.5 195.813 108.406 194.969C108.938 194.5 111.844 187.563 118.156 171.781C123.062 159.406 127.219 149.156 127.344 149.031C127.469 148.906 127.812 148.875 128.125 149C128.531 149.156 128.594 149.406 128.406 150.344C127.969 152.469 128.188 160.094 128.719 162.938C130.25 170.688 133.688 177.438 139 183.031C151.219 195.938 170.156 199.313 185.969 191.406C189.812 189.469 192.438 187.5 196 183.969C199.594 180.438 201.781 177.469 203.688 173.656C210.219 160.688 209.188 145.281 201.031 133.188C197.906 128.563 189.844 121.313 187.844 121.313C187.469 121.313 186.781 121.625 186.312 121.969C185.625 122.5 185.5 122.844 185.562 123.75C185.656 124.781 185.938 125.094 188.656 127.156C195.562 132.375 200.062 138.906 202.062 146.531C205.312 158.938 201.906 171.563 192.875 180.563C182.125 191.344 166.469 194 152.844 187.438C145.469 183.875 139.938 178.406 136.438 171.188C132.656 163.406 131.781 154.969 133.938 146.781C137.188 134.531 146.875 124.844 159.094 121.656C164.656 120.188 169.594 120.094 175.75 121.375L178.969 122.031L179.812 121.406C180.469 120.906 180.656 120.5 180.656 119.594C180.656 117.969 179.75 117.375 175.969 116.563C171.938 115.719 164.438 115.656 160.656 116.438C150.281 118.625 141.312 124.406 135.5 132.625C133.656 135.25 131.156 140.031 130.344 142.563C130.031 143.5 129.75 144.344 129.688 144.406C129.625 144.469 128.469 144.063 127.062 143.5L124.562 142.5V137.594V132.688L126.625 130.688C132.875 124.531 136.219 117.406 136.719 109.156L136.906 105.906L138.781 105.375C141.156 104.75 141.812 104.375 143.562 102.75C146.312 100.219 147.531 96.1877 146.625 92.5939C146.25 91.1564 146.125 89.1564 146.125 85.2189C146.125 80.1564 146.156 79.7814 146.719 79.5939C147.75 79.2814 148.938 78.1564 149.562 76.9064C150.438 75.2189 150.438 70.8439 149.562 69.1564C148.812 67.6564 147.688 66.7189 146.125 66.3127L144.969 66.0002L144.781 62.0314C144.531 57.3752 144.094 55.4689 142.469 52.2502C141.062 49.5002 138.094 46.4064 135.312 44.7502C134.312 44.1564 132.844 43.1564 132.062 42.5002C128.438 39.5002 123.719 38.0002 118.844 38.2814C116.25 38.4064 115.719 38.3439 113.156 37.4689C109.438 36.2189 105.438 36.0314 102.156 36.9064ZM112.5 42.2189C114.875 43.1564 115.062 43.1877 118.156 43.0002C122.969 42.6877 125.812 43.5627 129.312 46.4064C130.219 47.1564 131.719 48.1564 132.625 48.6564C137.562 51.3439 140.188 56.5002 140.188 63.5627V66.0002H138.344H136.469L135.469 64.1252C134.156 61.6564 131.562 58.8439 129.156 57.2502C124.625 54.2814 118.25 53.4377 113.219 55.1564C108.531 56.7814 104.562 60.0627 102.406 64.1252L101.406 66.0002H94.7188C88.2188 66.0002 88 66.0314 87.25 66.6877C86.125 67.7189 86.0312 69.0314 87.0625 70.0627C87.6562 70.6564 88.0938 70.6877 93.9375 70.6877H100.188V73.0314V75.3752H85.2188C76.9688 75.3752 70.0312 75.2814 69.75 75.1877C69.0312 74.9064 69.0312 71.1564 69.75 70.8752C70.0312 70.7814 72.3438 70.6877 74.9062 70.6877C79.1562 70.6877 79.625 70.6252 80.1875 70.0627C81.125 69.1252 81.0312 67.4689 80 66.6564C79.2812 66.0939 78.7188 66.0002 76.1875 66.0002H73.25L73.4688 62.3127C73.7188 58.1564 74.4062 55.5314 75.8438 53.4064C77.0625 51.5314 79.5 49.3752 81.3125 48.5002C82.0938 48.1252 83.4375 47.1877 84.3438 46.4064C87.625 43.5627 90.5312 42.6877 95.5312 43.0002C98.4375 43.1564 99.0312 43.1252 100.25 42.5627C104.5 40.6877 108.406 40.5627 112.5 42.2189ZM123.25 59.5939C127.188 60.7814 131.125 64.7189 132.375 68.6877C134.938 77.0627 129.812 85.4064 121.094 86.9689C113.281 88.3752 105.5 82.1877 104.969 74.1877C104.281 64.0627 113.5 56.7189 123.25 59.5939ZM145.125 70.9689C145.406 71.1252 145.5 71.8127 145.438 73.2189L145.344 75.2189L141.531 75.3127L137.688 75.4064V73.0314V70.6877H141.219C143.125 70.6877 144.906 70.8127 145.125 70.9689ZM76.75 82.0939C76.75 83.4689 76.625 84.1877 76.375 84.2502C76.1562 84.3127 75.4062 84.5002 74.7188 84.6564C74.0312 84.8439 73.2188 85.0939 72.9375 85.2189C72.4375 85.4064 72.375 85.1877 72.375 82.7502V80.0627H74.5625H76.75V82.0939ZM102.406 81.9377C106.469 89.5939 116.062 93.5939 124.25 91.0627C126.875 90.2502 128.75 89.2502 130.75 87.6564L132.062 86.5939V98.4689C132.062 110.969 131.938 112.313 130.5 116.438C127.812 124.219 121.062 130.844 113.062 133.5C105.281 136.125 97.1562 133.906 90.0938 127.281C86.5 123.875 83.875 119.406 82.25 113.969C81.6562 111.906 81.625 110.875 81.5 95.9064L81.4062 80.0627H91.4062H101.406L102.406 81.9377ZM141.438 82.7502C141.438 85.1877 141.375 85.4064 140.906 85.2189C140.594 85.1252 139.719 84.8752 138.938 84.6877C138.156 84.5002 137.344 84.3127 137.156 84.2502C136.875 84.1877 136.75 83.4689 136.75 82.0939V80.0627H139.094H141.438V82.7502ZM76.75 95.0939V101.063L75.9062 100.844C74.4375 100.5 72.7188 99.1877 72.0625 97.8752C71.375 96.5314 71.2188 94.0939 71.7812 92.6564C72.4062 91.0002 74.6562 89.1252 76.0625 89.1252H76.75V95.0939ZM138.906 89.5627C140.719 90.5002 142.375 93.1564 142.375 95.0627C142.375 97.0939 140.875 99.3752 138.906 100.375C136.688 101.531 136.75 101.688 136.75 95.0627C136.75 89.2814 136.781 89.1252 137.375 89.1252C137.75 89.1252 138.438 89.3439 138.906 89.5627ZM100.094 138.375C102.406 139.063 103.438 139.188 106.594 139.188C110.812 139.188 113.594 138.594 117.219 136.969C118.375 136.438 119.469 136 119.594 136C119.75 136 119.875 137.656 119.875 139.688V143.375L115 147.563C112.312 149.844 109.594 152 109 152.313C106.406 153.625 105.094 153 99.0625 147.719L94.25 143.469V139.719V136L95.7812 136.781C96.6562 137.188 98.5625 137.938 100.094 138.375ZM122.406 148.406C122.094 149.25 118.469 158.25 114.406 168.469L106.969 187L99.0625 167.219C94.6875 156.344 91.1875 147.406 91.25 147.344C91.3125 147.281 93.6562 149.219 96.4375 151.656C99.25 154.094 102.188 156.375 102.969 156.719C104.844 157.563 108.5 157.625 110.531 156.844C111.438 156.5 113.875 154.656 117.406 151.625C120.406 149.063 122.875 146.969 122.906 146.938C122.969 146.938 122.719 147.594 122.406 148.406Z" fill="#292330"></path> <path d="M116.969 63.8438C110.062 65.4688 107.312 73.5 111.719 79.0938C113.219 81 116.312 82.4062 118.937 82.4062C123.969 82.4062 127.875 78.7812 128.25 73.8438C128.406 71.3438 128 69.7188 126.719 67.7812C125.5 65.9062 123.562 64.5625 121.25 63.9688C119.25 63.4375 118.719 63.4375 116.969 63.8438ZM121.437 69.0938C124.531 71.3125 124.25 75.6562 120.906 77.2812C118.625 78.375 116.531 77.7188 114.969 75.375C112.281 71.4375 117.562 66.3125 121.437 69.0938Z" fill="#292330"></path> <path d="M154.562 132.562C148.969 133.437 144 137.344 141.844 142.562C141.187 144.219 141 145.219 140.875 147.937C140.656 153.5 141.281 154.937 147.625 163.594C149.375 166 150.812 168.094 150.812 168.281C150.844 170.375 152.125 179.562 152.5 180.281C153.5 182.219 156.062 183.812 158.187 183.812C160.125 183.812 162.687 182.219 163.594 180.437C163.906 179.812 164.625 176.875 165.156 173.969C165.687 171.031 166.281 168.344 166.437 167.937C167.125 166.344 169.5 166.437 170.125 168.094C170.312 168.562 170.906 171.344 171.437 174.25C172.5 180.062 172.781 180.781 174.375 182.187C176.687 184.219 179.687 184.281 182.312 182.344C184.062 181.031 184.5 179.687 185.156 173.531L185.781 167.906L189.562 162.656C191.656 159.781 193.719 156.75 194.125 155.937C198.187 147.937 194.844 138.156 186.687 134.156C181.375 131.531 175.781 131.844 170.562 135.031C169.719 135.562 168.719 136 168.344 136C167.969 136 166.656 135.437 165.406 134.781C161.75 132.781 158.031 132.031 154.562 132.562ZM160.5 137.625C161.094 137.781 162.531 138.5 163.687 139.187C167.062 141.187 169.687 141.156 172.937 139.094C176.187 137.031 180.25 136.562 183.687 137.875C185.656 138.594 188.281 140.75 189.406 142.562C191.125 145.312 191.594 149.375 190.531 152.437C189.937 154.094 189.219 155.187 183.75 162.687L181.281 166.125L180.625 172.219C180.062 177.219 179.844 178.375 179.375 178.719C177.781 179.875 177 178.781 176.156 174.094C174.937 167.469 174.562 166.094 173.594 164.781C172.062 162.656 169.219 161.625 166.625 162.281C164.969 162.687 162.969 164.312 162.25 165.812C161.969 166.375 161.25 169.437 160.656 172.594C159.594 178.312 159.25 179.125 158.094 179.125C157.437 179.125 156.437 177.937 156.406 177.156C156.406 176.781 156.156 174.219 155.875 171.437C155.469 167.75 155.156 166.156 154.75 165.5C154.406 165 152.562 162.406 150.656 159.75C146.531 154.062 145.906 152.906 145.531 150.375C144.375 141.844 152.219 135.156 160.5 137.625Z" fill="#292330"></path> <path d="M160.656 146C159.938 146.812 159.906 148.312 160.625 149.094C162.125 150.75 167.125 151.906 170.406 151.312C172.969 150.875 175.375 149.875 175.969 149C176.625 148.094 176.531 146.719 175.781 145.969C175 145.187 173.813 145.281 170.969 146.312C168.781 147.125 166.469 147 164.375 146C162.75 145.187 161.375 145.187 160.656 146Z" fill="#292330"></path> <path d="M54.3125 163.969C53.25 165.312 50.9062 170.094 50.0625 172.625C48.5 177.25 48.2812 178.906 48.0938 186.687L47.9375 194.094L48.7188 194.875C49.75 195.906 50.9375 195.906 51.9062 194.906C52.6875 194.156 52.6875 194.094 52.6875 188.531C52.6875 185.437 52.8438 181.812 53.0312 180.469C53.5938 176.187 55.125 171.812 57.6875 167.281C58.6562 165.531 58.6875 164.781 57.75 163.719C57 162.875 55.0625 163 54.3125 163.969Z" fill="#292330"></path> <path d="M63.5938 176.594L62.375 177.812V182.875V187.938L63.5938 189.156L64.8125 190.375H75.6875C87.5938 190.375 87.625 190.375 88.8438 188.531C89.5 187.531 89.5625 187.156 89.5625 182.875C89.5625 178.594 89.5 178.219 88.8438 177.219C87.625 175.375 87.5938 175.375 75.6875 175.375H64.8125L63.5938 176.594ZM84.875 182.875V185.688H75.9688H67.0625V182.875V180.062H75.9688H84.875V182.875Z" fill="#292330"></path> </g> <defs> <clipPath id="clip0_22_318"> <rect width="40" height="40" fill="white" transform="translate(48 36) scale(4)"></rect> </clipPath> </defs> </svg> 