<?xml version="1.0" encoding="UTF-8"?> <svg xmlns="http://www.w3.org/2000/svg" width="232" height="232" viewBox="0 0 232 232" fill="none"> <circle cx="116" cy="116" r="116" fill="#FEEF34"></circle> <g clip-path="url(#clip0_22_317)"> <path d="M113.023 20.6891C111.645 21.0719 108.277 22.6032 105.482 24.0961L100.429 26.7758L94.1125 26.3164C87.107 25.8188 83.9679 26.0485 80.8671 27.2735C77.2687 28.6899 74.589 30.9102 70.4929 35.9633L66.6265 40.6719L60.9992 42.4328C54.1851 44.5766 51.4671 45.9547 48.7109 48.711C45.9546 51.5055 44.5382 54.2618 42.5476 60.7696L40.9398 66.129L38.6429 68.043C26.814 77.9196 25.2828 81.3649 26.546 94.8399L27.0054 99.4336L24.0578 105.291C18.6218 116.124 18.6218 120.297 23.9812 130.327L26.7757 135.571L26.3164 141.926C25.8187 148.893 26.0484 152.032 27.2734 155.133C28.6898 158.731 30.9101 161.411 35.9632 165.507L40.6718 169.373L42.4328 175.001C44.5765 181.815 45.9164 184.418 48.7109 187.251C51.4671 190.045 54.1851 191.423 60.7695 193.414L66.1289 195.06L68.0429 197.357C77.9195 209.186 81.3648 210.717 94.8398 209.454L99.4335 208.995L105.291 211.942C116.124 217.378 120.297 217.378 130.365 212.019L135.609 209.186L139.744 209.531C147.132 210.143 151.228 210.028 153.984 209.109C158.157 207.731 161.105 205.434 165.43 200.152L169.259 195.443L174.924 193.644C181.891 191.385 184.456 190.045 187.251 187.251C190.084 184.418 191.462 181.738 193.452 175.231L195.06 169.871L197.357 167.957C209.186 158.081 210.717 154.635 209.454 141.16L208.994 136.566L211.942 130.709C217.378 119.876 217.378 115.703 212.019 105.635L209.186 100.391L209.53 96.2563C210.143 88.868 210.028 84.7719 209.109 82.0157C207.731 77.8047 205.434 74.8954 200.075 70.493L195.328 66.6266L193.567 60.9993C191.423 54.1852 190.045 51.4672 187.289 48.711C184.494 45.9547 181.738 44.5383 175.23 42.5477L169.871 40.9399L167.957 38.643C158.08 26.8141 154.635 25.2829 141.16 26.5461L136.566 27.0055L130.709 24.0578C122.517 19.9618 118.612 19.2344 113.023 20.6891ZM127.915 31.293C135.341 34.968 134.959 34.8914 141.734 34.1641C148.434 33.475 150.501 33.6282 153.257 35.0063C155.362 36.0782 156.396 37.0352 160.492 41.7438C163.134 44.768 165.584 47.4094 165.966 47.6008C166.311 47.8305 169.067 48.711 172.053 49.6297C178.446 51.5438 180.092 52.3094 181.968 54.3383C183.844 56.2907 184.188 57.018 186.677 64.6743L188.859 71.2204L193.452 74.9719C202.563 82.3602 202.869 83.1258 201.836 96.4094L201.415 101.845L204.784 108.391L208.152 114.938V117.962V120.948L204.745 127.8C200.994 135.418 201.032 135.15 201.836 142.041C202.563 148.281 202.372 150.501 200.994 153.257C199.922 155.363 198.965 156.396 194.256 160.492C191.232 163.134 188.591 165.584 188.399 165.966C188.169 166.311 187.289 169.067 186.37 172.053C184.456 178.446 183.691 180.092 181.662 181.968C179.709 183.844 178.982 184.188 171.364 186.677L164.818 188.82L160.875 193.644C153.487 202.602 152.874 202.87 139.591 201.836L134.155 201.415L127.609 204.784L121.062 208.152H118.038H115.052L108.2 204.745C100.582 200.994 100.85 201.032 93.9593 201.836C87.7195 202.563 85.4992 202.372 82.7429 200.956C80.6375 199.922 79.6039 198.965 75.5078 194.256C72.8664 191.232 70.3781 188.591 70.0336 188.361C69.6507 188.17 66.8945 187.251 63.9085 186.37C57.5921 184.456 56.3289 183.882 54.3382 181.968C52.3476 180.131 51.85 179.02 49.3234 171.326L47.1414 164.741L42.4328 160.913C33.4367 153.602 33.0921 152.759 34.2023 139.399L34.6234 134.155L31.2164 127.609L27.8476 121.063V118.038V115.052L31.2546 108.2C35.0062 100.582 34.9679 100.85 34.164 93.9594C33.3601 86.9922 33.7812 83.8914 35.9632 80.9821C36.4609 80.3313 39.2554 77.6899 42.1648 75.1633C45.0742 72.5985 47.639 70.0719 47.8687 69.4977C48.0984 68.8852 48.9406 66.2821 49.7062 63.6407C51.3906 57.9368 52.1562 56.2907 54.032 54.3383C55.8695 52.3477 56.9796 51.85 64.6742 49.3235L71.2203 47.1414L74.9718 42.5477C82.3601 33.4368 83.1257 33.1305 96.4093 34.1641L101.922 34.6235L107.549 31.6375C114.44 28.0008 115.588 27.618 118.727 27.8094C120.909 27.9625 121.981 28.3454 127.915 31.293Z" fill="#292330"></path> <path d="M116.124 41.9734C112.794 43.8109 114.21 49.0938 118 49.0938C119.952 49.0938 121.828 47.218 121.828 45.3039C121.828 42.4328 118.651 40.557 116.124 41.9734Z" fill="#292330"></path> <path d="M97.7108 44.1556C85.7287 47.3712 74.3209 53.9173 64.8655 63.0665C58.0514 69.5743 53.4194 75.9673 49.2467 84.504C30.5272 122.632 46.7584 168.799 85.3459 187.174C106.209 197.089 130.747 196.936 151.496 186.753C189.471 168.072 205.205 122.747 186.906 84.7337C178.369 67.0861 163.095 53.1517 144.797 46.2993C138.978 44.1173 135.303 43.2751 133.848 43.7345C132.317 44.2704 131.398 45.6103 131.398 47.2946C131.398 49.3618 132.585 50.5103 135.724 51.3907C153.831 56.597 167.765 67.0861 177.144 82.59C191.538 106.363 189.777 137.447 172.78 159.688C162.827 172.704 148.357 181.93 132.547 185.299C108.162 190.543 82.5897 182.083 66.2819 163.402C42.5475 136.26 43.5428 95.8736 68.5787 69.9954C76.8475 61.497 87.3366 55.1806 98.9358 51.8118C103.415 50.5103 104.601 49.5532 104.601 47.3329C104.601 45.6103 103.721 44.2704 102.228 43.7728C100.812 43.2751 101.194 43.2368 97.7108 44.1556Z" fill="#292330"></path> <path d="M115.933 58.8555C114.134 59.5063 112.334 61.1141 111.607 62.7984C111.301 63.5258 110.88 66.0906 110.688 68.5406C110.305 73.0961 109.502 76.0055 107.09 81.5945C106.516 82.9727 105.559 86.4563 104.946 89.4039C103.491 96.5625 102.573 97.9024 100.352 96.0266L99.1656 95.0313H87.6813H76.1969L75.0867 96.1414L73.9766 97.2516V127.762V158.272L75.0867 159.382L76.1969 160.492H87.7195H99.2039L100.467 159.382C101.998 158.042 101.884 158.042 112.066 160.76L118.957 162.598H135.418H151.879L154.099 161.564C159.803 158.884 163.708 152.338 163.019 146.596C162.827 144.835 162.904 144.567 164.014 143.304C164.665 142.577 165.66 141.007 166.196 139.82C167.038 138.021 167.191 137.179 167.23 133.887C167.268 130.135 167.306 129.982 168.646 127.953C170.407 125.312 171.364 121.598 171.096 118.804C170.866 116.737 170.866 116.698 172.551 115.244C178.791 109.77 177.145 99.5484 169.527 96.1031C167.613 95.2227 167.306 95.2227 150.386 95.0313L133.236 94.8399L132.279 93.0406C130.786 90.1695 130.748 87.7961 132.126 83.6234C132.777 81.6711 133.427 78.8383 133.542 77.307C134.231 69.0766 128.987 61.0758 121.484 58.8938C118.957 58.1664 117.885 58.1664 115.933 58.8555ZM122.479 68.043C125.886 70.9524 126.766 76.1203 124.776 81.6328C123.398 85.4227 123.13 88.7531 123.895 92.0836L124.508 94.6867L122.977 96.1414C121.33 97.6727 121.062 98.7828 121.905 100.582C122.862 102.688 122.709 102.688 145.103 102.688H165.737L167.038 103.568C168.761 104.716 169.259 106.477 168.378 108.277C167.421 110.305 166.005 110.727 159.918 110.727C152.721 110.727 151.305 111.416 151.305 114.861C151.305 115.933 151.573 116.584 152.3 117.273C153.219 118.115 153.64 118.191 158.31 118.383L163.363 118.574L163.287 120.373C163.21 123.627 160.875 126.039 157.812 126.039C156.013 126.039 154.367 127.838 154.367 129.752C154.405 132.049 156.128 133.695 158.54 133.695C159.535 133.695 159.727 133.848 159.727 134.538C159.688 137.179 157.009 140.203 154.673 140.203C153.142 140.203 151.688 141.007 151.075 142.155C149.735 144.797 151.037 147.362 153.908 147.745C155.516 147.974 155.554 148.013 155.324 149.161C154.941 151.075 153.18 153.334 151.305 154.291C149.582 155.171 149.544 155.171 134.652 155.056L119.723 154.941L112.258 152.951C108.162 151.879 104.142 150.884 103.338 150.73L101.922 150.501L101.998 127.723L102.113 104.946L104.41 104.027C107.549 102.764 109.999 100.123 111.033 96.8688C111.492 95.5289 112.181 92.5813 112.641 90.2844C113.138 87.7195 114.057 84.657 115.091 82.2453C117.12 77.4984 117.962 74.2828 118.23 70.0719C118.345 68.3492 118.498 66.7031 118.574 66.4352C118.804 65.7078 120.68 66.5117 122.479 68.043ZM94.2656 127.762V152.836H87.9492H81.6328V127.762V102.688H87.9492H94.2656V127.762Z" fill="#292330"></path> </g> <defs> <clipPath id="clip0_22_317"> <rect width="49" height="49" fill="white" transform="translate(20 20) scale(4)"></rect> </clipPath> </defs> </svg> 