<?xml version="1.0" encoding="UTF-8"?> <svg xmlns="http://www.w3.org/2000/svg" width="184" height="184" viewBox="0 0 184 184" fill="none"> <circle cx="92" cy="92" r="92" fill="#FEEF34"></circle> <path d="M67 28.35C61.775 29.325 57.6 31.5 53.8 35.25C51.025 38 48.575 42.35 47.475 46.5C46.675 49.475 46.675 54.95 47.45 57.875C48.95 63.475 54.025 80.375 54.425 81.075C55.05 82.175 56.775 83 58.4 83H59.725L59.975 84.3C60.125 85.025 60.4 86.525 60.6 87.625C61.075 90.175 61.275 90.725 62.15 91.525C63.425 92.7 63.725 92.75 68.6 92.75C72.85 92.75 73.25 92.775 73.25 93.175C73.25 93.425 73.525 95.975 73.875 98.875C74.5 104.225 74.5 104.475 73.55 104.5C72.9 104.5 71.3 105.5 70.55 106.35C68.725 108.425 68.875 111.375 70.9 113.425C72 114.5 73.2 115 74.8 115C75.7 115 75.725 115.025 75.85 116.05C76.325 119.55 76.4 120.525 76.225 120.65C76.1 120.725 75.45 120.95 74.75 121.15C68.65 122.975 69.95 131.5 76.325 131.5H77.675L77.975 134C78.125 135.4 78.25 136.65 78.25 136.825C78.25 137 77.7 137.3 77.05 137.475C75.55 137.85 74.15 138.975 73.475 140.325C73.05 141.125 72.975 141.675 73.05 143.025C73.125 144.475 73.25 144.875 73.9 145.675C75.025 147.05 76.525 147.825 78.15 147.825C79.7 147.825 79.625 147.725 79.875 150.5C80.15 153.475 80.825 154.7 82.625 155.525C83.525 155.95 84.4 156 92 156C99.625 156 100.475 155.95 101.4 155.525C102.55 155 103.35 154.1 103.725 152.925C103.925 152.3 105.25 141.925 105.25 141C105.25 140.9 105.775 140.675 106.4 140.525C109.95 139.625 111.65 137.225 111 134.075C110.75 132.975 110.475 132.475 109.625 131.6C109 130.975 108.125 130.4 107.5 130.225C106.65 129.975 106.5 129.825 106.6 129.4C106.65 129.1 106.85 127.625 107 126.125L107.3 123.35L108.875 122.9C111.65 122.1 113.225 120.2 113.25 117.675C113.25 117.025 113.1 116.1 112.9 115.65C112.4 114.45 110.95 113.1 109.7 112.7C108.475 112.275 108.525 112.625 109.075 108.275L109.375 105.925L110.7 105.475C112.55 104.85 113.35 104.175 114.1 102.7C114.9 101.1 114.925 99.65 114.2 98.1C113.675 96.925 112.175 95.625 111.1 95.35C110.625 95.225 110.55 95.075 110.675 94.3C110.725 93.775 110.825 93.225 110.9 93.05C110.95 92.825 112.1 92.75 115.5 92.75C122.175 92.75 122.525 92.475 123.625 86.55L124.3 83H125.6C127.4 83 128.975 82.175 129.65 80.875C130.3 79.675 136.35 59.2 136.875 56.425C137.775 51.7 136.85 45.35 134.675 41.45C133.775 39.825 132.125 39.75 131.275 41.3C130.925 41.925 130.925 42.075 131.475 43.3C133.175 47.15 133.85 51.525 133.275 55.15C133.075 56.45 128.825 71.525 126.6 78.8C126.475 79.225 125.175 79.25 104.125 79.25C88.05 79.25 81.6 79.325 81.15 79.525C79.875 80.1 79.775 82.1 80.975 82.725C81.3 82.925 87.7 83 100.975 83H120.475L120.325 83.8C120.275 84.25 120.025 85.575 119.8 86.75L119.375 88.875H92H64.625L64.125 86L63.6 83.125L69.05 83C73.725 82.9 74.55 82.825 75 82.45C75.75 81.8 75.675 80.425 74.85 79.775C74.2 79.275 73.9 79.25 65.875 79.25H57.575L54.5 68.8C50.85 56.4 50.825 56.25 50.6 53.375C50.025 45.2 54.9 37.15 62.55 33.65C65.5 32.3 67.45 31.9 71 31.9C73.725 31.9 74.6 32.025 77.9 32.825C83.925 34.3 86.225 34.575 92 34.575C97.775 34.575 100 34.3 106.075 32.85C109.425 32.025 110.275 31.925 113.125 31.9C115.775 31.9 116.725 32 118.325 32.45C120.775 33.15 123.7 34.6 125.6 36.1C127.4 37.475 128.425 37.625 129.225 36.6C130.025 35.6 129.875 35.025 128.525 33.725C125.975 31.275 121.325 29.1 116.9 28.35C113.975 27.825 110.375 28.025 106.625 28.9C101.125 30.175 99.3 30.475 95.7 30.8C89.95 31.275 85.7 30.825 77.375 28.9C73.95 28.1 69.675 27.875 67 28.35ZM106.925 94.15C106.85 94.925 106.75 95.575 106.7 95.6C106.55 95.725 78.85 103.075 78.525 103.1C78.225 103.125 78.025 102.125 77.6 98.375C77.275 95.75 77.025 93.425 77.025 93.175C77 92.775 77.875 92.75 92.025 92.75H107.075L106.925 94.15ZM110.5 99.25C111.125 99.875 111.15 100.8 110.525 101.35C110.25 101.6 107.425 102.5 104.075 103.4C99.1 104.725 98.025 105.1 97.575 105.625C96.875 106.425 96.85 107 97.525 107.85C98.2 108.7 98.825 108.7 102.4 107.725C104 107.3 105.325 107 105.375 107.05C105.5 107.2 104.75 112.825 104.575 113.025C104.475 113.125 98.925 114.65 92.25 116.425L80.125 119.675L79.95 118.6C79.875 118 79.725 116.7 79.625 115.7L79.45 113.875L85.5 112.25C88.85 111.375 91.825 110.425 92.15 110.175C93.325 109.25 92.65 107 91.2 107C90.9 107 87 107.975 82.575 109.15C73.85 111.5 73.45 111.525 73.1 110.125C72.75 108.75 73.275 108.45 79.05 106.9C81.975 106.125 89.95 103.975 96.75 102.125C103.55 100.3 109.325 98.775 109.575 98.775C109.8 98.75 110.225 98.975 110.5 99.25ZM109.1 116.65C109.7 117.225 109.6 118.425 108.95 118.85C108.325 119.25 76.775 127.75 75.925 127.75C74.6 127.75 73.975 125.85 75.075 125.15C75.775 124.675 106.825 116.3 107.925 116.275C108.35 116.25 108.9 116.425 109.1 116.65ZM103.075 127.425C102.875 129.05 102.625 130.45 102.55 130.525C102.25 130.8 82.225 136.075 82.075 135.925C81.975 135.8 81.25 130.45 81.35 130.35C81.425 130.25 102.675 124.55 103.025 124.525C103.375 124.5 103.375 124.775 103.075 127.425ZM107.225 134.6C107.525 135.225 107.5 135.375 107.075 135.975C106.625 136.575 105.25 136.975 92.275 140.45C78.65 144.1 77.925 144.275 77.35 143.875C76.65 143.425 76.5 142 77.1 141.525C77.7 141.025 104.775 133.8 105.875 133.825C106.7 133.875 106.925 134 107.225 134.6ZM101.25 142.55C101.25 143.375 100.275 151.575 100.125 151.925C100.05 152.175 98.2 152.25 92.025 152.25C84.625 152.25 84.025 152.225 83.9 151.825C83.675 151.075 83.225 146.95 83.35 146.825C83.475 146.675 100.45 142.05 100.95 142.025C101.1 142 101.25 142.25 101.25 142.55Z" fill="#292330"></path> <path d="M76 39.5002C75.25 40.2502 75.325 41.6252 76.15 42.1502C76.925 42.6752 80.75 43.6252 84.375 44.1752C88.125 44.7502 95.875 44.7502 99.625 44.1752C103.4 43.6002 107.5 42.5752 108.05 42.0752C108.65 41.5252 108.65 39.9502 108.05 39.4252C107.525 38.9502 106.275 38.8752 105 39.2502C102.85 39.8752 98.875 40.5252 95.575 40.8002C90.475 41.2252 83.575 40.5752 79 39.2502C77.625 38.8502 76.55 38.9502 76 39.5002Z" fill="#292330"></path> </svg> 