<?xml version="1.0" encoding="UTF-8"?> <svg xmlns="http://www.w3.org/2000/svg" width="781" height="224" viewBox="0 0 781 224" fill="none"> <path d="M112 224C173.856 224 224 173.856 224 112C224 50.1441 173.856 0 112 0C50.1441 0 0 50.1441 0 112C0 173.856 50.1441 224 112 224Z" fill="#FEEF34"></path> <path d="M80.75 32.4375C74.2188 33.6563 69 36.375 64.25 41.0625C60.7813 44.5 57.7188 49.9375 56.3438 55.125C55.3438 58.8438 55.3438 65.6875 56.3125 69.3438C58.1875 76.3438 64.5313 97.4688 65.0313 98.3438C65.8125 99.7188 67.9688 100.75 70 100.75H71.6563L71.9688 102.375C72.1563 103.281 72.5 105.156 72.75 106.531C73.3438 109.719 73.5938 110.406 74.6875 111.406C76.2813 112.875 76.6563 112.938 82.75 112.938C88.0625 112.938 88.5625 112.969 88.5625 113.469C88.5625 113.781 88.9063 116.969 89.3438 120.594C90.125 127.281 90.125 127.594 88.9375 127.625C88.125 127.625 86.125 128.875 85.1875 129.938C82.9063 132.531 83.0938 136.219 85.625 138.781C87 140.125 88.5 140.75 90.5 140.75C91.625 140.75 91.6563 140.781 91.8125 142.063C92.4063 146.438 92.5 147.656 92.2813 147.813C92.125 147.906 91.3125 148.188 90.4375 148.438C82.8125 150.719 84.4375 161.375 92.4063 161.375H94.0938L94.4688 164.5C94.6563 166.25 94.8125 167.813 94.8125 168.031C94.8125 168.25 94.125 168.625 93.3125 168.844C91.4375 169.313 89.6875 170.719 88.8438 172.406C88.3125 173.406 88.2188 174.094 88.3125 175.781C88.4063 177.594 88.5625 178.094 89.375 179.094C90.7813 180.813 92.6563 181.781 94.6875 181.781C96.625 181.781 96.5313 181.656 96.8438 185.125C97.1875 188.844 98.0313 190.375 100.281 191.406C101.406 191.938 102.5 192 112 192C121.531 192 122.594 191.938 123.75 191.406C125.188 190.75 126.188 189.625 126.656 188.156C126.906 187.375 128.563 174.406 128.563 173.25C128.563 173.125 129.219 172.844 130 172.656C134.438 171.531 136.563 168.531 135.75 164.594C135.438 163.219 135.094 162.594 134.031 161.5C133.25 160.719 132.156 160 131.375 159.781C130.313 159.469 130.125 159.281 130.25 158.75C130.313 158.375 130.563 156.531 130.75 154.656L131.125 151.188L133.094 150.625C136.563 149.625 138.531 147.25 138.563 144.094C138.563 143.281 138.375 142.125 138.125 141.563C137.5 140.063 135.688 138.375 134.125 137.875C132.594 137.344 132.656 137.781 133.344 132.344L133.719 129.406L135.375 128.844C137.688 128.063 138.688 127.219 139.625 125.375C140.625 123.375 140.656 121.563 139.75 119.625C139.094 118.156 137.219 116.531 135.875 116.188C135.281 116.031 135.188 115.844 135.344 114.875C135.406 114.219 135.531 113.531 135.625 113.313C135.688 113.031 137.125 112.938 141.375 112.938C149.719 112.938 150.156 112.594 151.531 105.188L152.375 100.75H154C156.25 100.75 158.219 99.7188 159.063 98.0938C159.875 96.5938 167.438 71 168.094 67.5313C169.219 61.625 168.063 53.6875 165.344 48.8125C164.219 46.7813 162.156 46.6875 161.094 48.625C160.656 49.4063 160.656 49.5938 161.344 51.125C163.469 55.9375 164.313 61.4063 163.594 65.9375C163.344 67.5625 158.031 86.4063 155.25 95.5C155.094 96.0313 153.469 96.0625 127.156 96.0625C107.063 96.0625 99 96.1563 98.4375 96.4063C96.8438 97.125 96.7188 99.625 98.2188 100.406C98.625 100.656 106.625 100.75 123.219 100.75H147.594L147.406 101.75C147.344 102.313 147.031 103.969 146.75 105.438L146.219 108.094H112H77.7813L77.1563 104.5L76.5 100.906L83.3125 100.75C89.1563 100.625 90.1875 100.531 90.75 100.063C91.6875 99.25 91.5938 97.5313 90.5625 96.7188C89.75 96.0938 89.375 96.0625 79.3438 96.0625H68.9688L65.125 83C60.5625 67.5 60.5313 67.3125 60.25 63.7188C59.5313 53.5 65.625 43.4375 75.1875 39.0625C78.875 37.375 81.3125 36.875 85.75 36.875C89.1563 36.875 90.25 37.0313 94.375 38.0313C101.906 39.875 104.781 40.2188 112 40.2188C119.219 40.2188 122 39.875 129.594 38.0625C133.781 37.0313 134.844 36.9063 138.406 36.875C141.719 36.875 142.906 37 144.906 37.5625C147.969 38.4375 151.625 40.25 154 42.125C156.25 43.8438 157.531 44.0313 158.531 42.75C159.531 41.5 159.344 40.7813 157.656 39.1563C154.469 36.0938 148.656 33.375 143.125 32.4375C139.469 31.7813 134.969 32.0313 130.281 33.125C123.406 34.7188 121.125 35.0938 116.625 35.5C109.438 36.0938 104.125 35.5313 93.7188 33.125C89.4375 32.125 84.0938 31.8438 80.75 32.4375ZM130.656 114.688C130.563 115.656 130.438 116.469 130.375 116.5C130.188 116.656 95.5625 125.844 95.1563 125.875C94.7813 125.906 94.5313 124.656 94 119.969C93.5938 116.688 93.2813 113.781 93.2813 113.469C93.25 112.969 94.3438 112.938 112.031 112.938H130.844L130.656 114.688ZM135.125 121.063C135.906 121.844 135.938 123 135.156 123.688C134.813 124 131.281 125.125 127.094 126.25C120.875 127.906 119.531 128.375 118.969 129.031C118.094 130.031 118.063 130.75 118.906 131.813C119.75 132.875 120.531 132.875 125 131.656C127 131.125 128.656 130.75 128.719 130.813C128.875 131 127.938 138.031 127.719 138.281C127.594 138.406 120.656 140.313 112.313 142.531L97.1563 146.594L96.9375 145.25C96.8438 144.5 96.6563 142.875 96.5313 141.625L96.3125 139.344L103.875 137.313C108.063 136.219 111.781 135.031 112.188 134.719C113.656 133.563 112.813 130.75 111 130.75C110.625 130.75 105.75 131.969 100.219 133.438C89.3125 136.375 88.8125 136.406 88.375 134.656C87.9375 132.938 88.5938 132.563 95.8125 130.625C99.4688 129.656 109.438 126.969 117.938 124.656C126.438 122.375 133.656 120.469 133.969 120.469C134.25 120.438 134.781 120.719 135.125 121.063ZM133.375 142.813C134.125 143.531 134 145.031 133.188 145.563C132.406 146.063 92.9688 156.688 91.9063 156.688C90.25 156.688 89.4688 154.313 90.8438 153.438C91.7188 152.844 130.531 142.375 131.906 142.344C132.438 142.313 133.125 142.531 133.375 142.813ZM125.844 156.281C125.594 158.313 125.281 160.063 125.188 160.156C124.813 160.5 99.7813 167.094 99.5938 166.906C99.4688 166.75 98.5625 160.063 98.6875 159.938C98.7813 159.813 125.344 152.688 125.781 152.656C126.219 152.625 126.219 152.969 125.844 156.281ZM131.031 165.25C131.406 166.031 131.375 166.219 130.844 166.969C130.281 167.719 128.563 168.219 112.344 172.563C95.3125 177.125 94.4063 177.344 93.6875 176.844C92.8125 176.281 92.625 174.5 93.375 173.906C94.125 173.281 127.969 164.25 129.344 164.281C130.375 164.344 130.656 164.5 131.031 165.25ZM123.563 175.188C123.563 176.219 122.344 186.469 122.156 186.906C122.063 187.219 119.75 187.313 112.031 187.313C102.781 187.313 102.031 187.281 101.875 186.781C101.594 185.844 101.031 180.688 101.188 180.531C101.344 180.344 122.563 174.563 123.188 174.531C123.375 174.5 123.563 174.813 123.563 175.188Z" fill="#292330"></path> <path d="M91.9999 46.3749C91.0624 47.3124 91.1561 49.0311 92.1874 49.6874C93.1561 50.3437 97.9374 51.5311 102.469 52.2187C107.156 52.9374 116.844 52.9374 121.531 52.2187C126.25 51.4999 131.375 50.2187 132.062 49.5937C132.812 48.9061 132.812 46.9374 132.062 46.2811C131.406 45.6874 129.844 45.5937 128.25 46.0624C125.562 46.8437 120.594 47.6561 116.469 47.9999C110.094 48.5311 101.469 47.7187 95.7499 46.0624C94.0311 45.5624 92.6874 45.6874 91.9999 46.3749Z" fill="#292330"></path> <path d="M291.022 41.569V81.4534H297.466V104.109H287.563V90H257.242V104.109H247.339V81.4534H251.07C252.336 78.921 253.557 76.253 254.733 73.4494C255.908 70.6457 256.994 67.6385 257.989 64.4279C259.029 61.2173 259.956 57.7353 260.77 53.982C261.584 50.1835 262.262 46.0458 262.805 41.569H291.022ZM270.944 50.1157C270.628 52.4671 270.175 54.9768 269.588 57.6448C269 60.2676 268.299 62.9582 267.485 65.7167C266.716 68.4751 265.857 71.1883 264.907 73.8563C263.958 76.5243 262.94 79.0567 261.855 81.4534H280.78V50.1157H270.944ZM332.783 90H304.905V41.569H332.783V49.98H315.147V60.6294H331.562V69.0404H315.147V81.5212H332.783V90ZM363.346 90L351.679 52.0149H351.408C351.453 52.9193 351.521 54.2759 351.611 56.0847C351.702 57.8936 351.792 59.838 351.882 61.9182C351.973 63.9531 352.018 65.8071 352.018 67.4803V90H342.861V41.569H356.834L368.297 78.6045H368.501L380.643 41.569H394.616V90H385.052V67.0733C385.052 65.5358 385.074 63.7722 385.119 61.7825C385.21 59.7928 385.278 57.9162 385.323 56.1526C385.413 54.3438 385.481 52.9872 385.526 52.0827H385.255L372.774 90H363.346ZM450.804 65.7167C450.804 69.47 450.329 72.8841 449.379 75.9591C448.475 78.9888 447.073 81.6116 445.174 83.8274C443.32 86.0432 440.923 87.739 437.984 88.9147C435.09 90.0904 431.675 90.6783 427.741 90.6783C423.807 90.6783 420.37 90.0904 417.431 88.9147C414.537 87.6938 412.14 85.998 410.241 83.8274C408.387 81.6116 406.985 78.9662 406.036 75.8913C405.131 72.8163 404.679 69.4021 404.679 65.6488C404.679 60.6294 405.493 56.2656 407.121 52.5576C408.794 48.8495 411.326 45.978 414.718 43.9431C418.155 41.8629 422.518 40.8229 427.809 40.8229C433.055 40.8229 437.373 41.8629 440.765 43.9431C444.156 45.978 446.666 48.8721 448.294 52.6254C449.967 56.3335 450.804 60.6972 450.804 65.7167ZM415.464 65.7167C415.464 69.1082 415.894 72.0249 416.753 74.4668C417.612 76.9087 418.946 78.7854 420.755 80.0967C422.564 81.4081 424.892 82.0638 427.741 82.0638C430.681 82.0638 433.032 81.4081 434.796 80.0967C436.604 78.7854 437.916 76.9087 438.73 74.4668C439.589 72.0249 440.019 69.1082 440.019 65.7167C440.019 60.6068 439.069 56.6048 437.17 53.7107C435.27 50.8166 432.15 49.3695 427.809 49.3695C424.915 49.3695 422.564 50.0252 420.755 51.3366C418.946 52.648 417.612 54.5246 416.753 56.9665C415.894 59.4084 415.464 62.3252 415.464 65.7167ZM500.313 90H488.646L471.078 65.4454V90H460.836V41.569H471.078V65.0384L488.443 41.569H499.363L481.727 64.8349L500.313 90ZM521.875 41.569C528.115 41.569 532.66 42.9256 535.509 45.6388C538.403 48.3068 539.85 51.9923 539.85 56.6952C539.85 58.8206 539.533 60.8555 538.9 62.8C538.267 64.6992 537.204 66.4176 535.712 67.9551C534.265 69.4474 532.343 70.6231 529.946 71.4823C527.55 72.3415 524.588 72.7711 521.061 72.7711H516.652V90H506.409V41.569H521.875ZM521.332 49.98H516.652V64.3601H520.043C521.988 64.3601 523.661 64.1114 525.063 63.6139C526.465 63.1165 527.55 62.3252 528.319 61.2399C529.087 60.1546 529.472 58.7527 529.472 57.0344C529.472 54.6377 528.816 52.8741 527.505 51.7436C526.193 50.5679 524.136 49.98 521.332 49.98ZM575.266 90L571.739 78.4688H554.103L550.575 90H539.519L556.612 41.3655H569.161L586.322 90H575.266ZM565.769 58.5945C565.543 57.8257 565.249 56.8535 564.888 55.6778C564.526 54.502 564.164 53.3037 563.802 52.0827C563.441 50.8618 563.147 49.7991 562.921 48.8947C562.694 49.7991 562.378 50.9296 561.971 52.2862C561.609 53.5976 561.247 54.8638 560.886 56.0847C560.569 57.2605 560.32 58.097 560.14 58.5945L556.68 69.8543H569.297L565.769 58.5945ZM606.34 90H596.098V50.1157H582.939V41.569H619.499V50.1157H606.34V90Z" fill="black"></path> <path d="M250.185 128.795H252.915V141.535C252.915 142.077 252.904 142.672 252.883 143.322C252.883 143.951 252.872 144.579 252.85 145.207C252.828 145.836 252.796 146.399 252.753 146.897C252.731 147.374 252.709 147.742 252.688 148.002H252.818L265.59 128.795H268.84V152H266.11V139.39C266.11 138.805 266.121 138.177 266.143 137.505C266.164 136.812 266.186 136.151 266.208 135.522C266.251 134.872 266.283 134.298 266.305 133.8C266.327 133.302 266.348 132.933 266.37 132.695H266.24L253.435 152H250.185V128.795ZM293.396 134.58V152H290.829V140.885C290.829 140.43 290.84 139.953 290.861 139.455C290.905 138.957 290.948 138.469 290.991 137.992H290.894L285.206 152H282.801L277.276 137.992H277.179C277.222 138.469 277.244 138.957 277.244 139.455C277.265 139.953 277.276 140.462 277.276 140.982V152H274.709V134.58H278.511L284.004 148.587L289.594 134.58H293.396ZM313.679 134.58V152H310.819V137.017H301.817V152H298.957V134.58H313.679ZM332.498 152H329.605V136.952H324.47C324.253 139.704 323.983 142.055 323.658 144.005C323.333 145.933 322.921 147.504 322.423 148.717C321.924 149.931 321.328 150.819 320.635 151.382C319.942 151.946 319.129 152.228 318.198 152.228C317.916 152.228 317.634 152.206 317.353 152.163C317.093 152.141 316.876 152.087 316.703 152V149.855C316.833 149.898 316.973 149.931 317.125 149.952C317.277 149.974 317.428 149.985 317.58 149.985C318.057 149.985 318.49 149.79 318.88 149.4C319.27 149.01 319.617 148.414 319.92 147.612C320.245 146.811 320.538 145.803 320.798 144.59C321.058 143.355 321.285 141.903 321.48 140.235C321.675 138.567 321.848 136.682 322 134.58H332.498V152ZM344.624 134.287C346.747 134.287 348.318 134.753 349.337 135.685C350.355 136.617 350.864 138.101 350.864 140.137V152H348.784L348.232 149.53H348.102C347.603 150.158 347.083 150.689 346.542 151.122C346.022 151.534 345.415 151.837 344.722 152.033C344.05 152.228 343.227 152.325 342.252 152.325C341.212 152.325 340.269 152.141 339.424 151.772C338.601 151.404 337.951 150.841 337.474 150.082C336.997 149.302 336.759 148.327 336.759 147.157C336.759 145.424 337.442 144.092 338.807 143.16C340.172 142.207 342.273 141.687 345.112 141.6L348.069 141.502V140.462C348.069 139.011 347.755 138.003 347.127 137.44C346.498 136.877 345.61 136.595 344.462 136.595C343.552 136.595 342.685 136.736 341.862 137.017C341.038 137.277 340.269 137.581 339.554 137.927L338.677 135.782C339.435 135.371 340.334 135.024 341.374 134.742C342.414 134.439 343.497 134.287 344.624 134.287ZM345.469 143.582C343.302 143.669 341.797 144.016 340.952 144.622C340.128 145.229 339.717 146.085 339.717 147.19C339.717 148.165 340.009 148.88 340.594 149.335C341.201 149.79 341.97 150.017 342.902 150.017C344.375 150.017 345.599 149.617 346.574 148.815C347.549 147.992 348.037 146.735 348.037 145.045V143.485L345.469 143.582ZM359.104 134.58V141.827H368.562V134.58H371.422V152H368.562V144.232H359.104V152H356.244V134.58H359.104ZM388.963 136.985H383.275V152H380.448V136.985H374.825V134.58H388.963V136.985ZM398.992 134.287C401.115 134.287 402.686 134.753 403.704 135.685C404.723 136.617 405.232 138.101 405.232 140.137V152H403.152L402.599 149.53H402.469C401.971 150.158 401.451 150.689 400.909 151.122C400.389 151.534 399.783 151.837 399.089 152.033C398.418 152.228 397.594 152.325 396.619 152.325C395.579 152.325 394.637 152.141 393.792 151.772C392.969 151.404 392.319 150.841 391.842 150.082C391.365 149.302 391.127 148.327 391.127 147.157C391.127 145.424 391.809 144.092 393.174 143.16C394.539 142.207 396.641 141.687 399.479 141.6L402.437 141.502V140.462C402.437 139.011 402.123 138.003 401.494 137.44C400.866 136.877 399.978 136.595 398.829 136.595C397.919 136.595 397.053 136.736 396.229 137.017C395.406 137.277 394.637 137.581 393.922 137.927L393.044 135.782C393.803 135.371 394.702 135.024 395.742 134.742C396.782 134.439 397.865 134.287 398.992 134.287ZM399.837 143.582C397.67 143.669 396.164 144.016 395.319 144.622C394.496 145.229 394.084 146.085 394.084 147.19C394.084 148.165 394.377 148.88 394.962 149.335C395.569 149.79 396.338 150.017 397.269 150.017C398.743 150.017 399.967 149.617 400.942 148.815C401.917 147.992 402.404 146.735 402.404 145.045V143.485L399.837 143.582ZM427.805 158.045H425.01V152H410.612V134.58H413.472V149.595H422.475V134.58H425.335V149.627H427.805V158.045ZM433.844 145.207C433.844 145.402 433.833 145.684 433.812 146.052C433.812 146.399 433.801 146.778 433.779 147.19C433.758 147.58 433.736 147.959 433.714 148.327C433.693 148.674 433.671 148.956 433.649 149.172L442.977 134.58H446.487V152H443.822V141.73C443.822 141.383 443.822 140.928 443.822 140.365C443.843 139.802 443.865 139.249 443.887 138.707C443.908 138.144 443.93 137.722 443.952 137.44L434.689 152H431.147V134.58H433.844V145.207ZM453.103 152H449.788L454.761 144.687C454.089 144.514 453.439 144.243 452.811 143.875C452.182 143.485 451.673 142.954 451.283 142.282C450.893 141.589 450.698 140.733 450.698 139.715C450.698 138.047 451.261 136.779 452.388 135.912C453.515 135.024 455.01 134.58 456.873 134.58H464.673V152H461.813V145.077H457.588L453.103 152ZM453.461 139.747C453.461 140.744 453.829 141.492 454.566 141.99C455.324 142.467 456.375 142.705 457.718 142.705H461.813V136.952H457.166C455.844 136.952 454.891 137.212 454.306 137.732C453.742 138.252 453.461 138.924 453.461 139.747ZM481.325 145.207C481.325 145.402 481.314 145.684 481.292 146.052C481.292 146.399 481.281 146.778 481.26 147.19C481.238 147.58 481.216 147.959 481.195 148.327C481.173 148.674 481.151 148.956 481.13 149.172L490.457 134.58H493.967V152H491.302V141.73C491.302 141.383 491.302 140.928 491.302 140.365C491.324 139.802 491.346 139.249 491.367 138.707C491.389 138.144 491.411 137.722 491.432 137.44L482.17 152H478.627V134.58H481.325V145.207ZM522.676 134.58V152H519.816V137.017H510.813V152H507.953V134.58H522.676ZM536.522 134.255C538.667 134.255 540.389 135.002 541.689 136.497C543.011 137.992 543.672 140.246 543.672 143.257C543.672 145.229 543.368 146.897 542.762 148.262C542.177 149.606 541.343 150.624 540.259 151.317C539.198 151.989 537.941 152.325 536.489 152.325C535.601 152.325 534.81 152.206 534.117 151.967C533.423 151.729 532.828 151.426 532.329 151.057C531.853 150.667 531.441 150.245 531.094 149.79H530.899C530.943 150.158 530.986 150.624 531.029 151.187C531.073 151.751 531.094 152.238 531.094 152.65V159.8H528.234V134.58H530.574L530.964 136.952H531.094C531.441 136.454 531.853 135.999 532.329 135.588C532.828 135.176 533.413 134.851 534.084 134.612C534.778 134.374 535.59 134.255 536.522 134.255ZM536.002 136.66C534.832 136.66 533.889 136.887 533.174 137.342C532.459 137.776 531.939 138.437 531.614 139.325C531.289 140.213 531.116 141.34 531.094 142.705V143.257C531.094 144.687 531.246 145.901 531.549 146.897C531.853 147.894 532.362 148.652 533.077 149.172C533.813 149.692 534.81 149.952 536.067 149.952C537.128 149.952 537.995 149.66 538.667 149.075C539.36 148.49 539.869 147.699 540.194 146.702C540.541 145.684 540.714 144.525 540.714 143.225C540.714 141.232 540.324 139.639 539.544 138.447C538.786 137.256 537.605 136.66 536.002 136.66ZM563.374 143.257C563.374 144.709 563.179 145.998 562.789 147.125C562.421 148.23 561.879 149.172 561.164 149.952C560.471 150.732 559.615 151.328 558.597 151.74C557.6 152.13 556.484 152.325 555.249 152.325C554.101 152.325 553.039 152.13 552.064 151.74C551.089 151.328 550.244 150.732 549.529 149.952C548.814 149.172 548.251 148.23 547.839 147.125C547.449 145.998 547.254 144.709 547.254 143.257C547.254 141.329 547.579 139.704 548.229 138.382C548.879 137.039 549.811 136.021 551.024 135.327C552.238 134.612 553.678 134.255 555.347 134.255C556.928 134.255 558.315 134.612 559.507 135.327C560.72 136.021 561.663 137.039 562.334 138.382C563.028 139.704 563.374 141.329 563.374 143.257ZM550.212 143.257C550.212 144.622 550.385 145.814 550.732 146.832C551.1 147.829 551.663 148.598 552.422 149.14C553.18 149.682 554.144 149.952 555.314 149.952C556.484 149.952 557.448 149.682 558.207 149.14C558.965 148.598 559.518 147.829 559.864 146.832C560.233 145.814 560.417 144.622 560.417 143.257C560.417 141.871 560.233 140.69 559.864 139.715C559.496 138.74 558.933 137.992 558.174 137.472C557.438 136.931 556.473 136.66 555.282 136.66C553.505 136.66 552.216 137.245 551.414 138.415C550.613 139.585 550.212 141.199 550.212 143.257ZM579.615 136.985H573.927V152H571.1V136.985H565.477V134.58H579.615V136.985ZM589.456 134.255C590.951 134.255 592.23 134.58 593.291 135.23C594.375 135.88 595.198 136.801 595.761 137.992C596.346 139.162 596.639 140.538 596.639 142.12V143.842H584.711C584.755 145.814 585.253 147.32 586.206 148.36C587.181 149.378 588.535 149.887 590.269 149.887C591.374 149.887 592.349 149.79 593.194 149.595C594.06 149.378 594.949 149.075 595.859 148.685V151.187C594.97 151.577 594.093 151.859 593.226 152.033C592.36 152.228 591.33 152.325 590.139 152.325C588.492 152.325 587.03 151.989 585.751 151.317C584.495 150.646 583.509 149.649 582.794 148.327C582.1 146.984 581.754 145.348 581.754 143.42C581.754 141.513 582.068 139.877 582.696 138.512C583.346 137.147 584.245 136.097 585.394 135.36C586.564 134.623 587.918 134.255 589.456 134.255ZM589.424 136.595C588.059 136.595 586.975 137.039 586.174 137.927C585.394 138.794 584.928 140.007 584.776 141.567H593.649C593.649 140.571 593.497 139.704 593.194 138.967C592.89 138.231 592.425 137.657 591.796 137.245C591.19 136.812 590.399 136.595 589.424 136.595ZM605.656 134.255C606.978 134.255 608.126 134.439 609.101 134.807C610.076 135.154 610.834 135.674 611.376 136.367C611.918 137.039 612.189 137.862 612.189 138.837C612.189 139.899 611.896 140.744 611.311 141.372C610.726 141.979 609.924 142.423 608.906 142.705V142.835C609.599 143.03 610.239 143.301 610.824 143.648C611.409 143.994 611.874 144.449 612.221 145.012C612.589 145.576 612.774 146.302 612.774 147.19C612.774 148.143 612.503 149.01 611.961 149.79C611.441 150.57 610.629 151.187 609.524 151.642C608.44 152.098 607.043 152.325 605.331 152.325C604.508 152.325 603.717 152.282 602.959 152.195C602.222 152.108 601.55 151.978 600.944 151.805C600.359 151.632 599.839 151.426 599.384 151.187V148.62C600.12 148.967 600.987 149.281 601.984 149.562C603.002 149.844 604.107 149.985 605.299 149.985C606.165 149.985 606.945 149.887 607.639 149.692C608.354 149.497 608.917 149.194 609.329 148.782C609.74 148.349 609.946 147.764 609.946 147.027C609.946 146.356 609.762 145.814 609.394 145.402C609.025 144.969 608.473 144.644 607.736 144.427C607.021 144.211 606.1 144.102 604.974 144.102H602.634V141.762H604.519C606.014 141.762 607.205 141.567 608.094 141.177C609.004 140.766 609.459 140.072 609.459 139.097C609.459 138.274 609.112 137.657 608.419 137.245C607.747 136.833 606.772 136.627 605.494 136.627C604.54 136.627 603.695 136.725 602.959 136.92C602.244 137.093 601.453 137.364 600.586 137.732L599.579 135.457C600.51 135.046 601.485 134.743 602.504 134.547C603.522 134.352 604.573 134.255 605.656 134.255ZM619.704 145.207C619.704 145.402 619.693 145.684 619.671 146.052C619.671 146.399 619.66 146.778 619.639 147.19C619.617 147.58 619.595 147.959 619.574 148.327C619.552 148.674 619.53 148.956 619.509 149.172L628.836 134.58H632.346V152H629.681V141.73C629.681 141.383 629.681 140.928 629.681 140.365C629.703 139.802 629.724 139.249 629.746 138.707C629.768 138.144 629.789 137.722 629.811 137.44L620.549 152H617.006V134.58H619.704V145.207ZM646.177 134.255C648.322 134.255 650.045 135.002 651.345 136.497C652.667 137.992 653.327 140.246 653.327 143.257C653.327 145.229 653.024 146.897 652.417 148.262C651.832 149.606 650.998 150.624 649.915 151.317C648.853 151.989 647.597 152.325 646.145 152.325C645.257 152.325 644.466 152.206 643.772 151.967C643.079 151.729 642.483 151.426 641.985 151.057C641.508 150.667 641.097 150.245 640.75 149.79H640.555C640.598 150.158 640.642 150.624 640.685 151.187C640.728 151.751 640.75 152.238 640.75 152.65V159.8H637.89V134.58H640.23L640.62 136.952H640.75C641.097 136.454 641.508 135.999 641.985 135.588C642.483 135.176 643.068 134.851 643.74 134.612C644.433 134.374 645.246 134.255 646.177 134.255ZM645.657 136.66C644.487 136.66 643.545 136.887 642.83 137.342C642.115 137.776 641.595 138.437 641.27 139.325C640.945 140.213 640.772 141.34 640.75 142.705V143.257C640.75 144.687 640.902 145.901 641.205 146.897C641.508 147.894 642.017 148.652 642.732 149.172C643.469 149.692 644.466 149.952 645.722 149.952C646.784 149.952 647.651 149.66 648.322 149.075C649.016 148.49 649.525 147.699 649.85 146.702C650.197 145.684 650.37 144.525 650.37 143.225C650.37 141.232 649.98 139.639 649.2 138.447C648.442 137.256 647.261 136.66 645.657 136.66ZM673.03 143.257C673.03 144.709 672.835 145.998 672.445 147.125C672.077 148.23 671.535 149.172 670.82 149.952C670.127 150.732 669.271 151.328 668.253 151.74C667.256 152.13 666.14 152.325 664.905 152.325C663.757 152.325 662.695 152.13 661.72 151.74C660.745 151.328 659.9 150.732 659.185 149.952C658.47 149.172 657.907 148.23 657.495 147.125C657.105 145.998 656.91 144.709 656.91 143.257C656.91 141.329 657.235 139.704 657.885 138.382C658.535 137.039 659.467 136.021 660.68 135.327C661.893 134.612 663.334 134.255 665.003 134.255C666.584 134.255 667.971 134.612 669.163 135.327C670.376 136.021 671.318 137.039 671.99 138.382C672.683 139.704 673.03 141.329 673.03 143.257ZM659.868 143.257C659.868 144.622 660.041 145.814 660.388 146.832C660.756 147.829 661.319 148.598 662.078 149.14C662.836 149.682 663.8 149.952 664.97 149.952C666.14 149.952 667.104 149.682 667.863 149.14C668.621 148.598 669.173 147.829 669.52 146.832C669.888 145.814 670.073 144.622 670.073 143.257C670.073 141.871 669.888 140.69 669.52 139.715C669.152 138.74 668.588 137.992 667.83 137.472C667.093 136.931 666.129 136.66 664.938 136.66C663.161 136.66 661.872 137.245 661.07 138.415C660.268 139.585 659.868 141.199 659.868 143.257ZM691.57 138.967C691.57 140.051 691.245 140.896 690.595 141.502C689.945 142.109 689.111 142.521 688.093 142.737V142.867C689.176 143.019 690.119 143.409 690.92 144.037C691.722 144.644 692.123 145.597 692.123 146.897C692.123 147.634 691.982 148.317 691.7 148.945C691.44 149.573 691.029 150.115 690.465 150.57C689.902 151.025 689.176 151.382 688.288 151.642C687.399 151.881 686.327 152 685.07 152H677.563V134.58H685.038C686.273 134.58 687.378 134.721 688.353 135.002C689.349 135.262 690.129 135.717 690.693 136.367C691.278 136.996 691.57 137.862 691.57 138.967ZM689.165 146.897C689.165 145.901 688.786 145.186 688.028 144.752C687.269 144.319 686.154 144.102 684.68 144.102H680.423V149.692H684.745C686.175 149.692 687.269 149.487 688.028 149.075C688.786 148.642 689.165 147.916 689.165 146.897ZM688.678 139.325C688.678 138.502 688.374 137.906 687.768 137.537C687.183 137.147 686.219 136.952 684.875 136.952H680.423V141.73H684.355C685.764 141.73 686.836 141.535 687.573 141.145C688.309 140.755 688.678 140.148 688.678 139.325ZM702.886 134.287C705.009 134.287 706.58 134.753 707.598 135.685C708.617 136.617 709.126 138.101 709.126 140.137V152H707.046L706.493 149.53H706.363C705.865 150.158 705.345 150.689 704.803 151.122C704.283 151.534 703.677 151.837 702.983 152.033C702.312 152.228 701.488 152.325 700.513 152.325C699.473 152.325 698.531 152.141 697.686 151.772C696.863 151.404 696.213 150.841 695.736 150.082C695.259 149.302 695.021 148.327 695.021 147.157C695.021 145.424 695.703 144.092 697.068 143.16C698.433 142.207 700.535 141.687 703.373 141.6L706.331 141.502V140.462C706.331 139.011 706.017 138.003 705.388 137.44C704.76 136.877 703.872 136.595 702.723 136.595C701.813 136.595 700.947 136.736 700.123 137.017C699.3 137.277 698.531 137.581 697.816 137.927L696.938 135.782C697.697 135.371 698.596 135.024 699.636 134.742C700.676 134.439 701.759 134.287 702.886 134.287ZM703.731 143.582C701.564 143.669 700.058 144.016 699.213 144.622C698.39 145.229 697.978 146.085 697.978 147.19C697.978 148.165 698.271 148.88 698.856 149.335C699.463 149.79 700.232 150.017 701.163 150.017C702.637 150.017 703.861 149.617 704.836 148.815C705.811 147.992 706.298 146.735 706.298 145.045V143.485L703.731 143.582ZM717.366 134.58V141.827H726.824V134.58H729.684V152H726.824V144.232H717.366V152H714.506V134.58H717.366ZM737.897 145.207C737.897 145.402 737.886 145.684 737.865 146.052C737.865 146.399 737.854 146.778 737.832 147.19C737.81 147.58 737.789 147.959 737.767 148.327C737.745 148.674 737.724 148.956 737.702 149.172L747.03 134.58H750.54V152H747.875V141.73C747.875 141.383 747.875 140.928 747.875 140.365C747.896 139.802 747.918 139.249 747.94 138.707C747.961 138.144 747.983 137.722 748.005 137.44L738.742 152H735.2V134.58H737.897V145.207ZM762.811 134.255C764.306 134.255 765.584 134.58 766.646 135.23C767.729 135.88 768.552 136.801 769.116 137.992C769.701 139.162 769.993 140.538 769.993 142.12V143.842H758.066C758.109 145.814 758.607 147.32 759.561 148.36C760.536 149.378 761.89 149.887 763.623 149.887C764.728 149.887 765.703 149.79 766.548 149.595C767.415 149.378 768.303 149.075 769.213 148.685V151.187C768.325 151.577 767.447 151.859 766.581 152.033C765.714 152.228 764.685 152.325 763.493 152.325C761.847 152.325 760.384 151.989 759.106 151.317C757.849 150.646 756.863 149.649 756.148 148.327C755.455 146.984 755.108 145.348 755.108 143.42C755.108 141.513 755.422 139.877 756.051 138.512C756.701 137.147 757.6 136.097 758.748 135.36C759.918 134.623 761.272 134.255 762.811 134.255ZM762.778 136.595C761.413 136.595 760.33 137.039 759.528 137.927C758.748 138.794 758.282 140.007 758.131 141.567H767.003C767.003 140.571 766.852 139.704 766.548 138.967C766.245 138.231 765.779 137.657 765.151 137.245C764.544 136.812 763.753 136.595 762.778 136.595ZM263.77 182.967C263.77 184.051 263.445 184.896 262.795 185.502C262.145 186.109 261.311 186.521 260.293 186.737V186.867C261.376 187.019 262.318 187.409 263.12 188.037C263.922 188.644 264.323 189.597 264.323 190.897C264.323 191.634 264.182 192.317 263.9 192.945C263.64 193.573 263.228 194.115 262.665 194.57C262.102 195.025 261.376 195.382 260.488 195.642C259.599 195.881 258.527 196 257.27 196H249.763V178.58H257.238C258.473 178.58 259.578 178.721 260.553 179.002C261.549 179.262 262.329 179.717 262.893 180.367C263.478 180.996 263.77 181.862 263.77 182.967ZM261.365 190.897C261.365 189.901 260.986 189.186 260.228 188.752C259.469 188.319 258.353 188.102 256.88 188.102H252.623V193.692H256.945C258.375 193.692 259.469 193.487 260.228 193.075C260.986 192.642 261.365 191.916 261.365 190.897ZM260.878 183.325C260.878 182.502 260.574 181.906 259.968 181.537C259.383 181.147 258.418 180.952 257.075 180.952H252.623V185.73H256.555C257.963 185.73 259.036 185.535 259.773 185.145C260.509 184.755 260.878 184.148 260.878 183.325ZM284.665 196H281.74V175.362H274.493V172.795H291.88V175.362H284.665V196ZM315.991 187.257C315.991 189.186 315.677 190.832 315.048 192.197C314.42 193.541 313.532 194.57 312.383 195.285C311.235 195.978 309.87 196.325 308.288 196.325C306.815 196.325 305.526 196.022 304.421 195.415C303.316 194.787 302.438 193.877 301.788 192.685C301.138 191.472 300.759 189.987 300.651 188.232H296.231V196H293.371V178.58H296.231V185.827H300.683C300.835 184.181 301.236 182.805 301.886 181.7C302.558 180.573 303.435 179.717 304.518 179.132C305.623 178.547 306.902 178.255 308.353 178.255C309.848 178.255 311.17 178.612 312.318 179.327C313.467 180.021 314.366 181.039 315.016 182.382C315.666 183.704 315.991 185.329 315.991 187.257ZM303.576 187.257C303.576 188.709 303.738 189.933 304.063 190.93C304.41 191.927 304.93 192.685 305.623 193.205C306.317 193.703 307.216 193.952 308.321 193.952C309.426 193.952 310.325 193.703 311.018 193.205C311.712 192.685 312.221 191.927 312.546 190.93C312.871 189.933 313.033 188.709 313.033 187.257C313.033 185.806 312.871 184.592 312.546 183.617C312.221 182.642 311.712 181.906 311.018 181.407C310.325 180.909 309.426 180.66 308.321 180.66C307.216 180.66 306.317 180.909 305.623 181.407C304.93 181.906 304.41 182.642 304.063 183.617C303.738 184.592 303.576 185.806 303.576 187.257ZM339.226 178.58V196H336.659V184.885C336.659 184.43 336.67 183.953 336.691 183.455C336.735 182.957 336.778 182.469 336.821 181.992H336.724L331.036 196H328.631L323.106 181.992H323.009C323.052 182.469 323.074 182.957 323.074 183.455C323.096 183.953 323.106 184.462 323.106 184.982V196H320.539V178.58H324.341L329.834 192.587L335.424 178.58H339.226ZM351.514 178.255C353.009 178.255 354.288 178.58 355.349 179.23C356.433 179.88 357.256 180.801 357.819 181.992C358.404 183.162 358.697 184.538 358.697 186.12V187.842H346.769C346.813 189.814 347.311 191.32 348.264 192.36C349.239 193.378 350.594 193.887 352.327 193.887C353.432 193.887 354.407 193.79 355.252 193.595C356.119 193.378 357.007 193.075 357.917 192.685V195.187C357.029 195.577 356.151 195.859 355.284 196.033C354.418 196.228 353.389 196.325 352.197 196.325C350.55 196.325 349.088 195.989 347.809 195.317C346.553 194.646 345.567 193.649 344.852 192.327C344.159 190.984 343.812 189.348 343.812 187.42C343.812 185.513 344.126 183.877 344.754 182.512C345.404 181.147 346.304 180.097 347.452 179.36C348.622 178.623 349.976 178.255 351.514 178.255ZM351.482 180.595C350.117 180.595 349.034 181.039 348.232 181.927C347.452 182.794 346.986 184.007 346.834 185.567H355.707C355.707 184.571 355.555 183.704 355.252 182.967C354.949 182.231 354.483 181.657 353.854 181.245C353.248 180.812 352.457 180.595 351.482 180.595ZM365.992 178.58V185.827H375.449V178.58H378.309V196H375.449V188.232H365.992V196H363.132V178.58H365.992ZM386.523 189.207C386.523 189.402 386.512 189.684 386.49 190.052C386.49 190.399 386.479 190.778 386.458 191.19C386.436 191.58 386.414 191.959 386.393 192.327C386.371 192.674 386.349 192.956 386.328 193.172L395.655 178.58H399.165V196H396.5V185.73C396.5 185.383 396.5 184.928 396.5 184.365C396.522 183.802 396.543 183.249 396.565 182.707C396.587 182.144 396.608 181.722 396.63 181.44L387.368 196H383.825V178.58H386.523V189.207ZM408.186 192.587C407.991 193.346 407.742 194.169 407.439 195.057C407.135 195.946 406.8 196.823 406.431 197.69C406.085 198.578 405.738 199.413 405.391 200.193H403.279C403.495 199.369 403.701 198.481 403.896 197.528C404.113 196.596 404.308 195.675 404.481 194.765C404.655 193.833 404.795 192.988 404.904 192.23H407.959L408.186 192.587ZM434.782 178.58V193.595H437.317V202.045H434.555V196H422.432V202.045H419.702V193.595H421.1C422.097 192.208 422.92 190.702 423.57 189.077C424.242 187.431 424.74 185.719 425.065 183.942C425.412 182.144 425.596 180.357 425.617 178.58H434.782ZM428.152 180.822C428.066 182.296 427.838 183.823 427.47 185.405C427.102 186.965 426.625 188.46 426.04 189.89C425.477 191.32 424.816 192.555 424.057 193.595H432.02V180.822H428.152ZM455.877 187.257C455.877 188.709 455.682 189.998 455.292 191.125C454.923 192.23 454.382 193.172 453.667 193.952C452.973 194.732 452.118 195.328 451.099 195.74C450.103 196.13 448.987 196.325 447.752 196.325C446.603 196.325 445.542 196.13 444.567 195.74C443.592 195.328 442.747 194.732 442.032 193.952C441.317 193.172 440.753 192.23 440.342 191.125C439.952 189.998 439.757 188.709 439.757 187.257C439.757 185.329 440.082 183.704 440.732 182.382C441.382 181.039 442.313 180.021 443.527 179.327C444.74 178.612 446.181 178.255 447.849 178.255C449.431 178.255 450.818 178.612 452.009 179.327C453.223 180.021 454.165 181.039 454.837 182.382C455.53 183.704 455.877 185.329 455.877 187.257ZM442.714 187.257C442.714 188.622 442.888 189.814 443.234 190.832C443.603 191.829 444.166 192.598 444.924 193.14C445.683 193.682 446.647 193.952 447.817 193.952C448.987 193.952 449.951 193.682 450.709 193.14C451.468 192.598 452.02 191.829 452.367 190.832C452.735 189.814 452.919 188.622 452.919 187.257C452.919 185.871 452.735 184.69 452.367 183.715C451.998 182.74 451.435 181.992 450.677 181.472C449.94 180.931 448.976 180.66 447.784 180.66C446.008 180.66 444.718 181.245 443.917 182.415C443.115 183.585 442.714 185.199 442.714 187.257ZM467.397 196.325C465.859 196.325 464.483 196.011 463.269 195.382C462.078 194.754 461.135 193.779 460.442 192.457C459.77 191.136 459.434 189.446 459.434 187.387C459.434 185.242 459.792 183.498 460.507 182.155C461.222 180.812 462.186 179.826 463.399 179.197C464.634 178.569 466.032 178.255 467.592 178.255C468.48 178.255 469.336 178.352 470.159 178.547C470.983 178.721 471.654 178.937 472.174 179.197L471.297 181.57C470.777 181.375 470.17 181.191 469.477 181.017C468.784 180.844 468.134 180.757 467.527 180.757C466.357 180.757 465.393 181.007 464.634 181.505C463.876 182.003 463.313 182.74 462.944 183.715C462.576 184.69 462.392 185.903 462.392 187.355C462.392 188.742 462.576 189.922 462.944 190.897C463.313 191.872 463.865 192.609 464.602 193.107C465.339 193.606 466.259 193.855 467.364 193.855C468.318 193.855 469.152 193.757 469.867 193.562C470.604 193.367 471.275 193.129 471.882 192.847V195.382C471.297 195.686 470.647 195.913 469.932 196.065C469.239 196.238 468.394 196.325 467.397 196.325ZM488.05 180.985H482.362V196H479.535V180.985H473.912V178.58H488.05V180.985ZM488.751 178.58H491.806L495.576 188.492C495.793 189.077 495.988 189.641 496.161 190.182C496.356 190.724 496.53 191.255 496.681 191.775C496.833 192.273 496.952 192.761 497.039 193.237H497.169C497.299 192.696 497.505 191.992 497.786 191.125C498.068 190.237 498.36 189.348 498.664 188.46L502.206 178.58H505.294L497.786 198.405C497.375 199.488 496.887 200.431 496.324 201.233C495.782 202.056 495.11 202.684 494.309 203.118C493.529 203.573 492.575 203.8 491.449 203.8C490.929 203.8 490.474 203.768 490.084 203.703C489.694 203.659 489.358 203.605 489.076 203.54V201.265C489.315 201.308 489.596 201.352 489.921 201.395C490.268 201.438 490.625 201.46 490.994 201.46C491.665 201.46 492.24 201.33 492.716 201.07C493.215 200.832 493.637 200.474 493.984 199.998C494.33 199.543 494.623 199.001 494.861 198.373L495.771 196.065L488.751 178.58ZM522.771 178.58V196H519.911V181.017H510.909V196H508.049V178.58H522.771ZM531.189 178.58V185.827H540.647V178.58H543.507V196H540.647V188.232H531.189V196H528.329V178.58H531.189ZM549.023 196V178.58H551.883V185.73H556.4C557.917 185.73 559.163 185.914 560.138 186.282C561.113 186.651 561.839 187.203 562.315 187.94C562.792 188.655 563.03 189.565 563.03 190.67C563.03 191.753 562.792 192.696 562.315 193.497C561.86 194.299 561.134 194.917 560.138 195.35C559.163 195.783 557.874 196 556.27 196H549.023ZM556.01 193.692C557.245 193.692 558.253 193.487 559.033 193.075C559.813 192.642 560.203 191.894 560.203 190.832C560.203 189.771 559.845 189.056 559.13 188.687C558.415 188.297 557.386 188.102 556.043 188.102H551.883V193.692H556.01ZM565.923 196V178.58H568.783V196H565.923ZM581.046 178.255C582.541 178.255 583.819 178.58 584.881 179.23C585.964 179.88 586.787 180.801 587.351 181.992C587.936 183.162 588.228 184.538 588.228 186.12V187.842H576.301C576.344 189.814 576.842 191.32 577.796 192.36C578.771 193.378 580.125 193.887 581.858 193.887C582.963 193.887 583.938 193.79 584.783 193.595C585.65 193.378 586.538 193.075 587.448 192.685V195.187C586.56 195.577 585.682 195.859 584.816 196.033C583.949 196.228 582.92 196.325 581.728 196.325C580.081 196.325 578.619 195.989 577.341 195.317C576.084 194.646 575.098 193.649 574.383 192.327C573.69 190.984 573.343 189.348 573.343 187.42C573.343 185.513 573.657 183.877 574.286 182.512C574.936 181.147 575.835 180.097 576.983 179.36C578.153 178.623 579.507 178.255 581.046 178.255ZM581.013 180.595C579.648 180.595 578.565 181.039 577.763 181.927C576.983 182.794 576.517 184.007 576.366 185.567H585.238C585.238 184.571 585.086 183.704 584.783 182.967C584.48 182.231 584.014 181.657 583.386 181.245C582.779 180.812 581.988 180.595 581.013 180.595ZM611.408 178.58H614.528L607.085 186.965L615.145 196H611.83L603.965 187.16V196H601.105V178.58H603.965V187.03L611.408 178.58ZM624.905 178.287C627.028 178.287 628.599 178.753 629.617 179.685C630.636 180.617 631.145 182.101 631.145 184.137V196H629.065L628.512 193.53H628.382C627.884 194.158 627.364 194.689 626.822 195.122C626.302 195.534 625.696 195.837 625.002 196.033C624.331 196.228 623.507 196.325 622.532 196.325C621.492 196.325 620.55 196.141 619.705 195.772C618.882 195.404 618.232 194.841 617.755 194.082C617.278 193.302 617.04 192.327 617.04 191.157C617.04 189.424 617.722 188.092 619.087 187.16C620.452 186.207 622.554 185.687 625.392 185.6L628.35 185.502V184.462C628.35 183.011 628.036 182.003 627.407 181.44C626.779 180.877 625.891 180.595 624.742 180.595C623.832 180.595 622.966 180.736 622.142 181.017C621.319 181.277 620.55 181.581 619.835 181.927L618.957 179.782C619.716 179.371 620.615 179.024 621.655 178.742C622.695 178.439 623.778 178.287 624.905 178.287ZM625.75 187.582C623.583 187.669 622.077 188.016 621.232 188.622C620.409 189.229 619.997 190.085 619.997 191.19C619.997 192.165 620.29 192.88 620.875 193.335C621.482 193.79 622.251 194.017 623.182 194.017C624.656 194.017 625.88 193.617 626.855 192.815C627.83 191.992 628.317 190.735 628.317 189.045V187.485L625.75 187.582ZM657.423 178.58L650.24 187.03L658.04 196H654.79L647.25 187.16V196H644.585V187.16L637.045 196H633.795L641.595 187.03L634.413 178.58H637.533L644.585 187.03V178.58H647.25V187.03L654.335 178.58H657.423ZM673.835 178.58V193.595H676.37V202.045H673.608V196H661.485V202.045H658.755V193.595H660.153C661.149 192.208 661.973 190.702 662.623 189.077C663.294 187.431 663.793 185.719 664.118 183.942C664.464 182.144 664.649 180.357 664.67 178.58H673.835ZM667.205 180.822C667.119 182.296 666.891 183.823 666.523 185.405C666.154 186.965 665.678 188.46 665.093 189.89C664.529 191.32 663.869 192.555 663.11 193.595H671.073V180.822H667.205ZM694.929 187.257C694.929 188.709 694.734 189.998 694.344 191.125C693.976 192.23 693.434 193.172 692.719 193.952C692.026 194.732 691.17 195.328 690.152 195.74C689.155 196.13 688.039 196.325 686.804 196.325C685.656 196.325 684.594 196.13 683.619 195.74C682.644 195.328 681.799 194.732 681.084 193.952C680.369 193.172 679.806 192.23 679.394 191.125C679.004 189.998 678.809 188.709 678.809 187.257C678.809 185.329 679.134 183.704 679.784 182.382C680.434 181.039 681.366 180.021 682.579 179.327C683.793 178.612 685.234 178.255 686.902 178.255C688.484 178.255 689.87 178.612 691.062 179.327C692.275 180.021 693.218 181.039 693.889 182.382C694.583 183.704 694.929 185.329 694.929 187.257ZM681.767 187.257C681.767 188.622 681.94 189.814 682.287 190.832C682.655 191.829 683.219 192.598 683.977 193.14C684.735 193.682 685.699 193.952 686.869 193.952C688.039 193.952 689.004 193.682 689.762 193.14C690.52 192.598 691.073 191.829 691.419 190.832C691.788 189.814 691.972 188.622 691.972 187.257C691.972 185.871 691.788 184.69 691.419 183.715C691.051 182.74 690.488 181.992 689.729 181.472C688.993 180.931 688.029 180.66 686.837 180.66C685.06 180.66 683.771 181.245 682.969 182.415C682.168 183.585 681.767 185.199 681.767 187.257ZM718.15 178.58V196H715.582V184.885C715.582 184.43 715.593 183.953 715.615 183.455C715.658 182.957 715.701 182.469 715.745 181.992H715.647L709.96 196H707.555L702.03 181.992H701.932C701.976 182.469 701.997 182.957 701.997 183.455C702.019 183.953 702.03 184.462 702.03 184.982V196H699.462V178.58H703.265L708.757 192.587L714.347 178.58H718.15ZM720.98 178.58H724.035L727.805 188.492C728.022 189.077 728.217 189.641 728.39 190.182C728.585 190.724 728.759 191.255 728.91 191.775C729.062 192.273 729.181 192.761 729.268 193.237H729.398C729.528 192.696 729.734 191.992 730.015 191.125C730.297 190.237 730.589 189.348 730.893 188.46L734.435 178.58H737.523L730.015 198.405C729.604 199.488 729.116 200.431 728.553 201.233C728.011 202.056 727.339 202.684 726.538 203.118C725.758 203.573 724.804 203.8 723.678 203.8C723.158 203.8 722.703 203.768 722.313 203.703C721.923 203.659 721.587 203.605 721.305 203.54V201.265C721.544 201.308 721.825 201.352 722.15 201.395C722.497 201.438 722.854 201.46 723.223 201.46C723.894 201.46 724.469 201.33 724.945 201.07C725.444 200.832 725.866 200.474 726.213 199.998C726.559 199.543 726.852 199.001 727.09 198.373L728 196.065L720.98 178.58Z" fill="black"></path> </svg> 