<?xml version="1.0" encoding="UTF-8"?> <svg xmlns="http://www.w3.org/2000/svg" width="53" height="61" viewBox="0 0 53 61" fill="none"> <path d="M11.9004 34.9999L11.4803 35.2711L11.9004 34.9999ZM51.7411 52.1339C51.9432 52.3221 51.9545 52.6385 51.7664 52.8406L48.7 56.1341C48.5118 56.3362 48.1954 56.3475 47.9933 56.1594C47.7912 55.9712 47.7799 55.6548 47.9681 55.4527L50.6938 52.5251L47.7662 49.7995C47.5641 49.6113 47.5528 49.2949 47.741 49.0928C47.9291 48.8907 48.2455 48.8794 48.4476 49.0676L51.7411 52.1339ZM1.93762 0.999878C2.43687 1.02724 2.43688 1.0272 2.43688 1.02716C2.43688 1.02716 2.43688 1.02713 2.43688 1.02712C2.43688 1.0271 2.43688 1.02709 2.43688 1.0271C2.43688 1.02712 2.43688 1.0272 2.43687 1.02735C2.43685 1.02766 2.43682 1.02823 2.43678 1.02906C2.43669 1.03072 2.43655 1.03344 2.43637 1.0372C2.436 1.04472 2.43544 1.05643 2.43475 1.07224C2.43336 1.10387 2.43144 1.15195 2.42937 1.21593C2.42524 1.34389 2.42055 1.53545 2.41848 1.78626C2.41436 2.2879 2.42076 3.02644 2.46325 3.96715L1.46427 4.01228C1.42092 3.05258 1.41425 2.2962 1.41852 1.77803C1.42065 1.51893 1.42551 1.31936 1.4299 1.18366C1.43209 1.11581 1.43415 1.06393 1.4357 1.02856C1.43648 1.01087 1.43712 0.997315 1.43758 0.987952C1.43781 0.983271 1.438 0.979639 1.43813 0.977063C1.4382 0.975775 1.43825 0.974752 1.43829 0.973994C1.43831 0.973616 1.43833 0.973303 1.43834 0.973057C1.43835 0.972933 1.43835 0.972827 1.43836 0.972738C1.43836 0.972693 1.43837 0.972637 1.43837 0.972615C1.43837 0.972564 1.43837 0.972518 1.93762 0.999878ZM3.0452 9.86691C3.30678 11.6267 3.67447 13.5889 4.18967 15.697L3.21826 15.9344C2.69516 13.794 2.32177 11.8015 2.05607 10.0139L3.0452 9.86691ZM5.86261 21.3954C6.4794 23.186 7.20541 25.0349 8.0597 26.916L7.1492 27.3295C6.28111 25.418 5.54357 23.5397 4.91712 21.7211L5.86261 21.3954ZM10.771 32.1919C11.2587 33.0367 11.7747 33.883 12.3205 34.7288L11.4803 35.2711C10.9253 34.4111 10.4008 33.5506 9.90499 32.6919L10.771 32.1919ZM12.3205 34.7288C12.8469 35.5443 13.3817 36.3223 13.9244 37.0643L13.1172 37.6546C12.5627 36.8964 12.0169 36.1025 11.4803 35.2711L12.3205 34.7288ZM17.5413 41.3821C18.9092 42.7992 20.3162 44.0341 21.7555 45.1092L21.1571 45.9104C19.6737 44.8023 18.2263 43.5316 16.8218 42.0766L17.5413 41.3821ZM26.5291 48.0648C28.2355 48.9241 29.977 49.6101 31.7449 50.1544L31.4506 51.1101C29.6332 50.5506 27.8392 49.8442 26.0793 48.958L26.5291 48.0648ZM37.2376 51.413C39.098 51.7084 40.9766 51.8885 42.8637 51.9875L42.8113 52.9861C40.8958 52.8857 38.9818 52.7025 37.0808 52.4006L37.2376 51.413ZM48.5386 52.075C49.4878 52.0604 50.4361 52.034 51.3826 52.0002L51.4183 52.9996C50.4666 53.0336 49.5114 53.0602 48.554 53.0749L48.5386 52.075ZM11.9004 34.9999L11.0603 35.5422L11.9004 34.9999ZM52.0819 51.768C52.4861 52.1443 52.5087 52.7771 52.1323 53.1813L45.9996 59.7684C45.6232 60.1726 44.9905 60.1952 44.5862 59.8188C44.182 59.4425 44.1594 58.8097 44.5358 58.4055L49.9871 52.5504L44.132 47.099C43.7278 46.7227 43.7052 46.0899 44.0815 45.6857C44.4578 45.2815 45.0906 45.2589 45.4948 45.6352L52.0819 51.768ZM1.93762 0.999878C2.93612 1.0546 2.93613 1.05452 2.93613 1.05444C2.93613 1.05442 2.93614 1.05435 2.93614 1.05431C2.93614 1.05423 2.93615 1.05416 2.93615 1.05412C2.93615 1.05402 2.93616 1.054 2.93615 1.05404C2.93615 1.05411 2.93613 1.05445 2.9361 1.05506C2.93604 1.05626 2.93592 1.05852 2.93576 1.06182C2.93543 1.06843 2.93492 1.0792 2.93427 1.09409C2.93297 1.12384 2.93112 1.17002 2.92911 1.23206C2.92511 1.35615 2.9205 1.5437 2.91847 1.79037C2.91441 2.28375 2.92068 3.01338 2.96274 3.94459L0.964781 4.03484C0.921002 3.06565 0.914203 2.30035 0.918535 1.77392C0.920701 1.51068 0.925651 1.30709 0.930156 1.16753C0.932409 1.09774 0.934551 1.04396 0.936179 1.00672C0.936994 0.988096 0.937679 0.973611 0.938186 0.963328C0.93844 0.958187 0.938649 0.954096 0.938806 0.951065C0.938886 0.949549 0.938951 0.9483 0.939004 0.947314C0.939031 0.946821 0.939053 0.946396 0.939073 0.946036C0.939082 0.945857 0.939091 0.945694 0.939099 0.945548C0.939103 0.945474 0.939109 0.945376 0.93911 0.94534C0.939116 0.945247 0.93912 0.945158 1.93762 0.999878ZM3.53977 9.7934C3.79928 11.5393 4.16412 13.4863 4.67538 15.5783L2.73255 16.0531C2.2055 13.8965 1.82927 11.8889 1.5615 10.0875L3.53977 9.7934ZM6.33535 21.2325C6.94731 23.0092 7.66755 24.8433 8.51496 26.7092L6.69395 27.5362C5.81896 25.6096 5.07566 23.7166 4.44438 21.8839L6.33535 21.2325ZM11.2041 31.9419C11.6877 32.7797 12.1993 33.619 12.7406 34.4576L11.0603 35.5422C10.5007 34.6752 9.97179 33.8076 9.47197 32.9419L11.2041 31.9419ZM12.7406 34.4576C13.2619 35.2653 13.7912 36.0352 14.3279 36.7691L12.7136 37.9498C12.1532 37.1835 11.602 36.3815 11.0603 35.5422L12.7406 34.4576ZM17.9011 41.0348C19.2507 42.433 20.6375 43.65 22.0547 44.7086L20.8579 46.3109C19.3524 45.1864 17.8849 43.8979 16.4621 42.4238L17.9011 41.0348ZM26.754 47.6183C28.4336 48.4641 30.149 49.1399 31.892 49.6765L31.3035 51.588C29.4613 51.0208 27.6411 50.3043 25.8545 49.4045L26.754 47.6183ZM37.316 50.9192C39.1562 51.2114 41.017 51.39 42.8899 51.4882L42.7851 53.4854C40.8554 53.3842 38.9236 53.1995 37.0024 52.8944L37.316 50.9192ZM48.531 51.5751C49.476 51.5605 50.4209 51.5342 51.3647 51.5005L51.4361 53.4993C50.4819 53.5333 49.5232 53.56 48.5617 53.5748L48.531 51.5751Z" fill="#292330"></path> </svg> 