<?xml version="1.0" encoding="UTF-8"?> <svg xmlns="http://www.w3.org/2000/svg" width="85" height="54" viewBox="0 0 85 54" fill="none"> <path d="M47.5877 39.7137L47.8193 40.1569L47.5877 39.7137ZM0.855705 43.5733C0.591305 43.6529 0.441552 43.9319 0.521226 44.1963L1.81957 48.5049C1.89925 48.7693 2.17817 48.919 2.44257 48.8394C2.70697 48.7597 2.85671 48.4808 2.77705 48.2164L1.62296 44.3865L5.45285 43.2324C5.71725 43.1527 5.86701 42.8738 5.78733 42.6094C5.70766 42.345 5.42874 42.1952 5.16434 42.2749L0.855705 43.5733ZM83.1756 1C82.7001 0.845315 82.7002 0.845276 82.7002 0.845242C82.7002 0.845237 82.7002 0.845206 82.7002 0.845195C82.7002 0.845172 82.7002 0.845167 82.7002 0.84518C82.7002 0.845204 82.7002 0.845299 82.7001 0.845463C82.7 0.845794 82.6998 0.846404 82.6995 0.847294C82.6989 0.849073 82.698 0.851969 82.6966 0.85597C82.694 0.863972 82.6898 0.876396 82.6842 0.893155C82.6728 0.926675 82.6554 0.977533 82.6316 1.04504C82.584 1.18006 82.5111 1.38167 82.4109 1.64434C82.2105 2.16971 81.9011 2.93926 81.467 3.90884L82.3797 4.31742C82.8219 3.32958 83.1386 2.54256 83.3453 2.00073C83.4486 1.7298 83.5245 1.52014 83.5748 1.3773C83.5999 1.30587 83.6187 1.25115 83.6313 1.21382C83.6377 1.19515 83.6425 1.18084 83.6457 1.17095C83.6474 1.16601 83.6486 1.16218 83.6495 1.15947C83.65 1.15811 83.6503 1.15703 83.6506 1.15624C83.6507 1.15584 83.6508 1.15551 83.6509 1.15525C83.6509 1.15513 83.651 1.15501 83.651 1.15492C83.651 1.15487 83.651 1.15482 83.6511 1.15479C83.6511 1.15474 83.6511 1.15469 83.1756 1ZM78.4216 9.81867C77.4239 11.5372 76.2284 13.4287 74.8115 15.4256L75.6271 16.0042C77.0628 13.9809 78.2746 12.0637 79.2864 10.3208L78.4216 9.81867ZM70.7118 20.6956C69.3406 22.3073 67.8309 23.9466 66.1723 25.5841L66.8749 26.2957C68.555 24.637 70.0844 22.9763 71.4734 21.3436L70.7118 20.6956ZM61.2321 30.0569C59.5795 31.4282 57.812 32.7787 55.9232 34.0903L56.4936 34.9117C58.4065 33.5833 60.1967 32.2155 61.8706 30.8265L61.2321 30.0569ZM50.2853 37.6623C49.3347 38.2101 48.3585 38.7468 47.3561 39.2706L47.8193 40.1569C48.8339 39.6266 49.8222 39.0834 50.7846 38.5287L50.2853 37.6623ZM47.3561 39.2706C46.4494 39.7445 45.5522 40.1917 44.6651 40.6136L45.0946 41.5167C45.9931 41.0894 46.9015 40.6365 47.8193 40.1569L47.3561 39.2706ZM39.1361 42.9764C37.1772 43.719 35.2763 44.339 33.4379 44.852L33.7067 45.8152C35.5742 45.2941 37.5036 44.6647 39.4905 43.9115L39.1361 42.9764ZM27.5895 46.1798C25.5025 46.5442 23.5173 46.7727 21.642 46.8941L21.7067 47.892C23.6173 47.7683 25.6384 47.5356 27.7615 47.1649L27.5895 46.1798ZM15.6629 46.9347C13.4534 46.8181 11.4674 46.5628 9.72621 46.2428L9.54544 47.2263C11.3266 47.5536 13.3554 47.8144 15.6102 47.9333L15.6629 46.9347ZM3.94802 44.7343C3.05373 44.4215 2.37088 44.1381 1.91403 43.9343C1.68562 43.8323 1.51373 43.7503 1.40019 43.6944C1.34342 43.6665 1.30124 43.6451 1.27388 43.631C1.26019 43.6239 1.25022 43.6187 1.24398 43.6154C1.24085 43.6138 1.23867 43.6126 1.23741 43.612C1.23679 43.6116 1.2364 43.6114 1.23624 43.6113C1.23616 43.6113 1.23615 43.6113 1.23618 43.6113C1.2362 43.6113 1.23623 43.6113 1.23628 43.6114C1.23631 43.6114 1.23636 43.6114 1.23637 43.6114C1.23642 43.6114 1.23647 43.6115 0.999965 44.052C0.763457 44.4925 0.763518 44.4926 0.76358 44.4926C0.763613 44.4926 0.763677 44.4926 0.763734 44.4927C0.763842 44.4927 0.763963 44.4928 0.764104 44.4929C0.764379 44.493 0.764713 44.4932 0.765101 44.4934C0.765889 44.4938 0.766915 44.4944 0.76817 44.495C0.770688 44.4964 0.774146 44.4982 0.778552 44.5005C0.787351 44.5051 0.799916 44.5117 0.816206 44.5201C0.8488 44.5369 0.896316 44.561 0.958538 44.5916C1.08298 44.6529 1.26625 44.7402 1.50652 44.8475C1.98704 45.0619 2.69568 45.3557 3.61784 45.6783L3.94802 44.7343ZM47.5877 39.7137L48.0509 40.6L47.5877 39.7137ZM0.711446 43.0945C0.182645 43.2539 -0.116854 43.8117 0.0424889 44.3405L2.63918 52.9578C2.79852 53.4866 3.35637 53.7861 3.88517 53.6267C4.41397 53.4674 4.71347 52.9095 4.55412 52.3807L2.24596 44.7209L9.90575 42.4128C10.4345 42.2534 10.734 41.6956 10.5747 41.1668C10.4154 40.638 9.8575 40.3385 9.3287 40.4978L0.711446 43.0945ZM83.1756 1C82.2247 0.690627 82.2247 0.690545 82.2247 0.690467C82.2247 0.690446 82.2248 0.690371 82.2248 0.690332C82.2248 0.690251 82.2248 0.690187 82.2248 0.690142C82.2249 0.690051 82.2249 0.690028 82.2249 0.690078C82.2248 0.690176 82.2247 0.690553 82.2245 0.691209C82.2241 0.692522 82.2233 0.694948 82.2221 0.698479C82.2197 0.70554 82.2159 0.717018 82.2106 0.732825C82.1999 0.764437 82.1831 0.813364 82.16 0.878915C82.1138 1.01002 82.0424 1.2076 81.9437 1.46615C81.7465 1.98329 81.4406 2.7441 81.0107 3.70455L82.8361 4.52171C83.2824 3.52474 83.6026 2.72899 83.8124 2.17891C83.9173 1.90386 83.9947 1.69018 84.0464 1.54342C84.0722 1.47004 84.0917 1.41339 84.1049 1.37415C84.1116 1.35453 84.1167 1.33927 84.1203 1.32844C84.1221 1.32303 84.1235 1.31873 84.1245 1.31555C84.1251 1.31396 84.1255 1.31265 84.1258 1.31162C84.126 1.31111 84.1261 1.31066 84.1263 1.31029C84.1263 1.3101 84.1264 1.30993 84.1264 1.30978C84.1265 1.30971 84.1265 1.30961 84.1265 1.30957C84.1265 1.30947 84.1266 1.30938 83.1756 1ZM77.9892 9.56763C76.9986 11.274 75.8112 13.1526 74.4037 15.1362L76.0349 16.2936C77.4799 14.2569 78.6999 12.3269 79.7189 10.5718L77.9892 9.56763ZM70.3309 20.3716C68.9687 21.9728 67.4688 23.6014 65.821 25.2283L67.2262 26.6515C68.9171 24.9821 70.4563 23.3108 71.8543 21.6676L70.3309 20.3716ZM60.9128 29.6722C59.2709 31.0345 57.5148 32.3764 55.638 33.6797L56.7788 35.3224C58.7038 33.9857 60.5053 32.6091 62.1899 31.2113L60.9128 29.6722ZM50.0357 37.2291C49.0909 37.7735 48.1208 38.3069 47.1246 38.8275L48.0509 40.6C49.0716 40.0666 50.0659 39.52 51.0343 38.9619L50.0357 37.2291ZM47.1246 38.8275C46.2233 39.2985 45.3318 39.7429 44.4504 40.1621L45.3093 41.9683C46.2136 41.5382 47.1275 41.0825 48.0509 40.6L47.1246 38.8275ZM38.9588 42.5089C37.014 43.2461 35.1274 43.8614 33.3036 44.3704L33.8411 46.2968C35.7231 45.7716 37.6668 45.1375 39.6678 44.379L38.9588 42.5089ZM27.5035 45.6873C25.4346 46.0485 23.4673 46.2749 21.6097 46.3951L21.739 48.391C23.6672 48.2661 25.7063 48.0313 27.8475 47.6574L27.5035 45.6873ZM15.6892 46.4354C13.5024 46.32 11.5378 46.0673 9.81659 45.751L9.45506 47.718C11.2562 48.0491 13.3064 48.3125 15.5838 48.4326L15.6892 46.4354ZM4.11312 44.2624C3.23275 43.9544 2.5628 43.6763 2.1178 43.4777C1.8953 43.3784 1.72911 43.299 1.62101 43.2458C1.56697 43.2192 1.52746 43.1991 1.50271 43.1864C1.49034 43.18 1.48165 43.1755 1.47669 43.1729C1.47421 43.1716 1.47265 43.1708 1.47204 43.1704C1.47173 43.1703 1.47165 43.1702 1.47181 43.1703C1.47189 43.1704 1.47203 43.1704 1.47222 43.1705C1.47232 43.1706 1.47244 43.1706 1.47256 43.1707C1.47263 43.1707 1.47273 43.1708 1.47276 43.1708C1.47287 43.1709 1.47299 43.1709 0.999965 44.052C0.526942 44.933 0.527063 44.9331 0.527191 44.9332C0.527238 44.9332 0.527363 44.9333 0.527457 44.9333C0.527646 44.9334 0.527842 44.9335 0.528057 44.9336C0.528496 44.9339 0.528986 44.9341 0.529537 44.9344C0.530638 44.935 0.531976 44.9357 0.533552 44.9366C0.536701 44.9382 0.540793 44.9404 0.545834 44.9431C0.555915 44.9484 0.569771 44.9556 0.587376 44.9647C0.622579 44.9828 0.672764 45.0082 0.737713 45.0402C0.867607 45.1041 1.05656 45.1942 1.30276 45.3041C1.79512 45.5238 2.51665 45.8228 3.45275 46.1502L4.11312 44.2624Z" fill="#292330"></path> </svg> 