<?xml version="1.0" encoding="UTF-8"?> <svg xmlns="http://www.w3.org/2000/svg" width="673" height="373" viewBox="0 0 673 373" fill="none"> <mask id="path-1-inside-1_17_303" fill="white"> <path fill-rule="evenodd" clip-rule="evenodd" d="M636.222 47.7275C608.217 19.7222 574.085 9.76546 516.841 3.64072C493.239 1.01583 218.143 -3.0365 159.29 3.64072C103.104 10.0154 52.1117 35.7252 36.1087 51.7282C35.8021 52.0731 35.4945 52.4188 35.1859 52.7655C19.3863 70.5179 1.13848 91.0212 0.101926 149.747C-0.882017 207.121 5.16844 214.882 22.1525 236.668C23.4101 238.281 24.7277 239.971 26.1068 241.764C48.111 263.768 68.7576 282.129 107.155 293.003C134.103 300.753 154.359 303.128 195.926 303.878L233.266 304.503V338.751C233.266 357.625 233.795 373 234.675 373C235.38 373 241.897 366.375 249.118 358.375C267.436 338.001 284.169 326.127 303.896 319.377C334.543 308.878 366.423 305.753 455.195 304.253C516.841 303.128 523.71 302.628 547.136 297.878C598.919 287.128 630.221 263.768 650.224 233.763C652.241 229.73 654.338 226.332 656.402 222.988C664.578 209.744 672.229 197.35 672.229 149.747C672.229 83.1017 652.633 63.858 638.658 50.1343C637.824 49.3153 637.01 48.516 636.222 47.7275Z"></path> </mask> <path fill-rule="evenodd" clip-rule="evenodd" d="M636.222 47.7275C608.217 19.7222 574.085 9.76546 516.841 3.64072C493.239 1.01583 218.143 -3.0365 159.29 3.64072C103.104 10.0154 52.1117 35.7252 36.1087 51.7282C35.8021 52.0731 35.4945 52.4188 35.1859 52.7655C19.3863 70.5179 1.13848 91.0212 0.101926 149.747C-0.882017 207.121 5.16844 214.882 22.1525 236.668C23.4101 238.281 24.7277 239.971 26.1068 241.764C48.111 263.768 68.7576 282.129 107.155 293.003C134.103 300.753 154.359 303.128 195.926 303.878L233.266 304.503V338.751C233.266 357.625 233.795 373 234.675 373C235.38 373 241.897 366.375 249.118 358.375C267.436 338.001 284.169 326.127 303.896 319.377C334.543 308.878 366.423 305.753 455.195 304.253C516.841 303.128 523.71 302.628 547.136 297.878C598.919 287.128 630.221 263.768 650.224 233.763C652.241 229.73 654.338 226.332 656.402 222.988C664.578 209.744 672.229 197.35 672.229 149.747C672.229 83.1017 652.633 63.858 638.658 50.1343C637.824 49.3153 637.01 48.516 636.222 47.7275Z" fill="white"></path> <path d="M516.841 3.64072L516.399 7.61699L516.416 7.61877L516.841 3.64072ZM636.222 47.7275L639.051 44.8985V44.8985L636.222 47.7275ZM159.29 3.64072L158.839 -0.334531L159.29 3.64072ZM36.1087 51.7282L33.2798 48.8993L33.1966 48.9824L33.1185 49.0703L36.1087 51.7282ZM35.1859 52.7655L38.1745 55.4253L38.1745 55.4253L35.1859 52.7655ZM0.101926 149.747L-3.89821 149.676L-3.89824 149.678L0.101926 149.747ZM22.1525 236.668L18.9973 239.128L18.9973 239.128L22.1525 236.668ZM26.1068 241.764L22.9357 244.203L23.0941 244.409L23.2779 244.593L26.1068 241.764ZM107.155 293.003L108.26 289.158L108.245 289.154L107.155 293.003ZM195.926 303.878L195.854 307.878L195.859 307.878L195.926 303.878ZM233.266 304.503H237.267V300.568L233.333 300.503L233.266 304.503ZM249.118 358.375L252.088 361.056L252.093 361.05L249.118 358.375ZM303.896 319.377L305.191 323.162L305.192 323.162L303.896 319.377ZM455.195 304.253L455.262 308.253L455.267 308.253L455.195 304.253ZM547.136 297.878L547.931 301.799L547.949 301.795L547.136 297.878ZM650.224 233.763L653.553 235.982L653.691 235.775L653.803 235.552L650.224 233.763ZM656.402 222.988L652.998 220.887V220.887L656.402 222.988ZM638.658 50.1343L641.461 47.2798L641.461 47.2797L638.658 50.1343ZM516.416 7.61877C573.446 13.7207 606.398 23.5612 633.393 50.5564L639.051 44.8985C610.035 15.8831 574.724 5.81024 517.267 -0.337329L516.416 7.61877ZM159.741 7.61597C188.871 4.31097 272.068 3.64585 351.259 4.1531C430.47 4.66047 504.863 6.33402 516.399 7.61696L517.283 -0.335519C505.217 -1.67747 430.262 -3.34253 351.31 -3.84824C272.34 -4.35408 188.562 -3.70676 158.839 -0.334531L159.741 7.61597ZM38.9377 54.5572C46.4044 47.0905 62.6033 36.9045 84.1914 27.7576C105.669 18.6577 132.089 10.7533 159.741 7.61597L158.839 -0.334531C130.305 2.9029 103.136 11.0407 81.0698 20.3901C59.1146 29.6925 41.8161 40.3629 33.2798 48.8993L38.9377 54.5572ZM38.1745 55.4253C38.4829 55.0787 38.7914 54.7321 39.0989 54.3862L33.1185 49.0703C32.8129 49.4141 32.5061 49.7588 32.1974 50.1057L38.1745 55.4253ZM4.10206 149.817C4.61307 120.866 9.35997 101.623 15.7508 87.5449C22.1432 73.4631 30.2827 64.2925 38.1745 55.4253L32.1974 50.1057C24.2896 58.9909 15.4054 68.9482 8.46482 84.2375C1.52265 99.5304 -3.37266 119.901 -3.89821 149.676L4.10206 149.817ZM25.3077 234.208C16.7766 223.265 11.4935 216.429 8.22461 205.414C4.90218 194.22 3.61051 178.479 4.10209 149.815L-3.89824 149.678C-4.3906 178.388 -3.14901 195.215 0.553818 207.691C4.31015 220.347 10.5444 228.285 18.9973 239.128L25.3077 234.208ZM29.2779 239.325C27.8897 237.52 26.5645 235.82 25.3077 234.208L18.9973 239.128C20.2558 240.742 21.5657 242.422 22.9357 244.203L29.2779 239.325ZM108.245 289.154C70.8241 278.556 50.7637 260.763 28.9358 238.935L23.2779 244.593C45.4582 266.773 66.6912 285.702 106.065 296.853L108.245 289.154ZM195.998 299.878C154.613 299.131 134.743 296.774 108.26 289.158L106.049 296.848C133.463 304.732 154.104 307.125 195.854 307.878L195.998 299.878ZM233.333 300.503L195.993 299.878L195.859 307.878L233.199 308.503L233.333 300.503ZM237.267 338.751V304.503H229.266V338.751H237.267ZM234.675 368.999C236.224 368.999 237.191 369.862 237.561 370.272C237.938 370.689 238.116 371.075 238.169 371.194C238.287 371.459 238.304 371.606 238.273 371.458C238.223 371.228 238.147 370.735 238.065 369.905C237.903 368.291 237.758 365.876 237.638 362.797C237.399 356.666 237.267 348.16 237.267 338.751H229.266C229.266 348.216 229.398 356.835 229.643 363.109C229.765 366.234 229.917 368.842 230.103 370.7C230.193 371.606 230.304 372.462 230.451 373.147C230.518 373.456 230.638 373.952 230.86 374.451C230.965 374.687 231.196 375.162 231.626 375.639C232.05 376.107 233.072 377.001 234.675 377.001V368.999ZM246.149 355.695C242.566 359.664 239.172 363.275 236.605 365.878C235.315 367.186 234.268 368.203 233.527 368.876C233.147 369.22 232.907 369.419 232.786 369.511C232.718 369.562 232.763 369.522 232.887 369.451C232.949 369.416 233.102 369.331 233.322 369.247C233.493 369.181 233.993 368.999 234.675 368.999V377.001C235.402 377.001 235.957 376.806 236.195 376.714C236.481 376.604 236.711 376.482 236.862 376.396C237.162 376.224 237.426 376.034 237.618 375.888C238.016 375.587 238.458 375.206 238.901 374.804C239.805 373.984 240.971 372.845 242.301 371.497C244.973 368.788 248.45 365.087 252.088 361.056L246.149 355.695ZM302.601 315.592C282.061 322.619 264.783 334.969 246.143 355.701L252.093 361.05C270.09 341.034 286.276 329.634 305.191 323.162L302.601 315.592ZM455.127 300.253C366.431 301.751 333.932 304.858 302.599 315.592L305.192 323.162C335.154 312.897 366.415 309.754 455.262 308.253L455.127 300.253ZM546.341 293.957C523.316 298.626 516.784 299.127 455.121 300.253L455.267 308.253C516.898 307.128 524.105 306.63 547.931 301.799L546.341 293.957ZM646.896 231.543C627.527 260.596 597.174 283.405 546.323 293.961L547.949 301.795C600.665 290.852 632.914 266.94 653.553 235.982L646.896 231.543ZM652.998 220.887C650.941 224.22 648.753 227.76 646.646 231.973L653.803 235.552C655.729 231.7 657.736 228.444 659.807 225.09L652.998 220.887ZM668.228 149.747C668.228 173.366 666.326 187.97 663.523 198.194C660.748 208.318 657.05 214.322 652.998 220.887L659.807 225.09C663.93 218.41 668.146 211.596 671.24 200.31C674.306 189.125 676.229 173.73 676.229 149.747H668.228ZM635.855 52.9887C642.78 59.7893 650.709 67.5943 657.032 81.7286C663.382 95.9253 668.228 116.801 668.228 149.747H676.229C676.229 116.047 671.277 93.9788 664.336 78.4614C657.367 62.8817 648.511 54.2029 641.461 47.2798L635.855 52.9887ZM633.393 50.5564C634.197 51.36 635.024 52.1722 635.855 52.9888L641.461 47.2797C640.625 46.4584 639.824 45.672 639.051 44.8985L633.393 50.5564Z" fill="#85D3FF" mask="url(#path-1-inside-1_17_303)"></path> </svg> 