<?xml version="1.0" encoding="UTF-8"?> <svg xmlns="http://www.w3.org/2000/svg" width="276" height="20" viewBox="0 0 276 20" fill="none"> <path fill-rule="evenodd" clip-rule="evenodd" d="M0 19.6587C1.04989 19.8934 2.14073 20 3.30852 20C8.47667 20 12.1374 17.9123 17.4133 11.8689C23.5504 4.8366 27.3189 4.8366 33.9944 11.8689C39.9162 18.0222 43.4694 20 48.7452 20C53.5903 20 57.3588 17.6925 62.6346 11.4294C65.8647 7.58359 67.1567 6.81443 70.3868 6.81443C73.7246 6.81443 75.2319 7.80335 80.4001 12.9677C85.5682 18.132 87.291 19.2308 91.2747 19.6704C97.1966 20.3296 100.642 18.6814 107.21 11.8689C113.67 4.94648 117.654 4.94648 123.683 11.4294C129.713 18.0222 132.943 20 137.68 20C142.956 20 146.509 18.0222 152.216 11.8689C156.092 7.69347 157.599 6.81443 160.722 6.81443C163.952 6.81443 165.352 7.69347 169.012 11.8689C174.288 17.9123 177.949 20 183.117 20C188.285 20 191.946 17.9123 197.222 11.8689C203.359 4.8366 207.127 4.8366 213.803 11.8689C219.725 18.0222 223.278 20 228.554 20C233.291 20 236.844 17.8024 242.658 11.4294C248.903 4.61684 252.133 4.94648 260.747 13.4072C266.453 19.0111 268.068 20 271.299 20C273.883 20 275.498 19.4506 275.821 18.3518C276.682 16.0443 274.313 13.4072 271.406 13.4072C269.899 13.4072 267.422 11.6491 265.054 9.01203C257.625 0.66117 250.734 -1.75618 244.166 1.75997C242.551 2.63901 239.105 5.60576 236.414 8.35275C229.953 15.1653 226.077 15.2752 219.832 8.68239C213.48 1.97973 210.573 0.221652 205.943 0.221652C200.56 0.221652 197.006 2.19949 191.623 8.35275C187.854 12.6381 186.562 13.4072 183.117 13.4072C179.564 13.4072 178.272 12.6381 174.073 8.02311C168.151 1.54021 165.782 0.221652 160.183 0.221652C155.661 0.221652 153.508 1.54021 146.294 8.90215C140.049 15.2752 135.958 15.1653 129.605 8.35275C119.484 -2.63522 112.27 -2.7451 102.365 7.80335C97.9503 12.5282 96.4429 13.4072 93.2128 13.4072C89.9827 13.4072 88.4753 12.5282 84.0609 7.80335C74.1552 -2.7451 67.1567 -2.63522 56.6051 8.35275C49.8219 15.4949 46.3764 15.3851 39.0549 7.80335C28.9339 -2.7451 21.397 -2.63522 11.8144 8.35275C8.04599 12.6381 6.75396 13.4072 3.30852 13.4072C1.97949 13.4072 0.966803 13.2996 0 12.9234V19.6587Z" fill="#292330"></path> </svg> 