<?xml version="1.0" encoding="UTF-8"?> <svg xmlns="http://www.w3.org/2000/svg" width="2500" height="20" viewBox="0 0 2500 20" fill="none"> <path fill-rule="evenodd" clip-rule="evenodd" d="M1252 0.534018C1248.16 1.46845 1244.65 3.73339 1239.73 8.1311C1231.97 15.1634 1227.59 15.1634 1220.46 8.1311C1214.33 2.08771 1210.08 7.91839e-08 1204.07 7.91839e-08C1198.07 7.91839e-08 1193.81 2.08771 1187.68 8.1311C1183.43 12.3065 1181.8 13.1856 1178.05 13.1856C1174.42 13.1856 1172.67 12.3065 1168.17 8.1311C1161.54 1.97784 1157.41 7.91839e-08 1151.28 7.91839e-08C1145.77 7.91839e-08 1142.02 1.97784 1135.01 8.57062C1128.01 15.0535 1123.38 15.0535 1115.87 8.1311C1108.24 1.31856 1104.24 -0.329639 1097.35 0.32964C1092.73 0.769158 1090.72 1.86796 1084.72 7.0323C1078.71 12.1966 1076.96 13.1856 1073.08 13.1856C1069.33 13.1856 1067.83 12.4164 1064.08 8.57062C1057.94 2.30747 1053.57 7.91839e-08 1047.94 7.91839e-08C1041.81 7.91839e-08 1037.68 1.97784 1030.8 8.1311C1023.04 15.1634 1018.66 15.1634 1011.53 8.1311C1005.4 2.08771 1001.15 7.91839e-08 995.14 7.91839e-08C989.135 7.91839e-08 984.881 2.08771 978.751 8.1311C974.372 12.4164 972.871 13.1856 968.992 13.1856C964.864 13.1856 963.362 12.4164 957.858 7.0323C952.478 1.97784 950.351 0.879038 946.097 0.32964C938.09 -0.549398 934.587 0.769158 927.456 7.25206C918.698 15.1634 914.82 15.3832 906.938 8.1311C899.306 1.31856 895.303 -0.329639 888.422 0.32964C883.793 0.769158 881.791 1.86796 875.786 7.0323C869.781 12.1966 868.029 13.1856 864.151 13.1856C860.523 13.1856 858.896 12.4164 855.393 9.12002C847.761 1.6482 844.634 7.91839e-08 837.878 7.91839e-08C831.998 7.91839e-08 831.247 0.32964 823.866 6.59278C813.857 15.0535 810.104 15.3832 802.847 8.57062C796.091 2.19759 791.963 7.91839e-08 786.458 7.91839e-08C780.202 7.91839e-08 776.074 1.97784 769.818 8.1311C765.44 12.4164 763.938 13.1856 759.935 13.1856C755.931 13.1856 754.43 12.4164 750.051 8.1311C743.921 2.08771 739.667 7.91839e-08 733.662 7.91839e-08C727.657 7.91839e-08 724.779 1.42844 717.898 7.80146C710.016 15.1634 705.762 15.2733 698.006 8.1311C691.125 1.97784 686.996 7.91839e-08 680.866 7.91839e-08C675.361 7.91839e-08 671.608 1.97784 664.602 8.57062C661.849 11.0979 658.471 13.1856 657.095 13.1856C656.494 13.1856 655.914 13.2794 655.374 13.4464C655.141 13.4206 654.903 13.4072 654.662 13.4072C652.911 13.4072 650.033 11.6491 647.281 9.01203C638.648 0.661171 630.641 -1.75618 623.01 1.75997C621.133 2.63901 617.129 5.60576 614.002 8.35275C606.495 15.1653 601.991 15.2752 594.735 8.68239C587.353 1.97973 583.975 0.221652 578.596 0.221652C572.34 0.221652 568.212 2.19949 561.956 8.35275C557.577 12.6381 556.076 13.4072 552.073 13.4072C547.944 13.4072 546.443 12.6381 541.563 8.02311C534.682 1.54021 531.93 0.221652 525.424 0.221652C520.17 0.221652 517.668 1.54021 509.285 8.90215C502.029 15.2752 497.275 15.1653 489.893 8.35275C478.133 -2.63522 469.751 -2.7451 458.241 7.80335C453.111 12.5282 451.36 13.4072 447.606 13.4072C443.853 13.4072 442.102 12.5282 436.972 7.80335C425.462 -2.7451 417.33 -2.63522 405.069 8.35275C397.187 15.4949 393.184 15.3851 384.676 7.80335C372.916 -2.7451 364.159 -2.63522 353.024 8.35275C348.645 12.6381 347.144 13.4072 343.14 13.4072C339.012 13.4072 337.51 12.6381 332.631 8.02311C326 1.86985 322.872 0.221652 317.618 0.221652C311.613 0.221652 307.859 1.97973 301.354 7.91323C293.096 15.3851 288.968 15.4949 281.211 8.35275C268.95 -2.63522 260.568 -2.7451 249.058 7.91323C244.054 12.6381 242.427 13.4072 238.424 13.4072C234.545 13.4072 232.919 12.6381 228.415 8.35275C216.655 -2.63522 208.398 -2.63522 196.137 8.35275C191.508 12.5282 189.881 13.4072 186.003 13.4072C181.999 13.4072 180.623 12.6381 176.37 8.46263C165.235 -2.63522 155.601 -2.7451 143.841 8.35275C139.462 12.5282 137.836 13.4072 133.958 13.4072C130.204 13.4072 128.578 12.5282 124.449 8.68239C117.318 2.08961 113.69 0.221652 107.935 0.221652C102.18 0.221652 98.0512 2.30937 91.2953 8.79227C87.1666 12.6381 85.6653 13.4072 81.6618 13.4072C77.6583 13.4072 76.157 12.6381 71.7782 8.35275C65.5228 2.19949 61.3941 0.221652 55.0136 0.221652C49.8841 0.221652 46.1308 2.30937 38.374 9.23179C31.6181 15.2752 26.7389 15.0554 19.4825 8.35275C16.605 5.60576 12.6015 2.63901 10.7249 1.75997C6.34607 -0.217866 1.09149 -0.217866 0.21572 1.86985C-0.785154 4.06744 1.84214 6.81444 5.09498 6.81444C6.47118 6.81444 9.84913 8.90215 12.6015 11.4294C19.6077 18.0222 23.3609 20 28.8657 20C34.9961 20 39.1247 18.0222 46.0057 11.8689C53.7625 4.72672 58.0162 4.8366 65.8981 12.1985C72.7791 18.5716 75.6566 20 81.6618 20C87.6671 20 91.9208 17.9123 98.0512 11.8689C102.43 7.58359 103.931 6.81444 107.935 6.81444C111.938 6.81444 113.44 7.58359 117.818 11.8689C124.074 18.0222 128.202 20 134.458 20C139.963 20 144.091 17.8024 150.847 11.4294C158.104 4.61684 161.857 4.94648 171.866 13.4072C179.247 19.6704 179.998 20 185.878 20C192.634 20 195.761 18.3518 203.393 10.88C206.896 7.58359 208.523 6.81444 212.151 6.81444C216.029 6.81444 217.781 7.80335 223.786 12.9677C229.791 18.132 231.793 19.2308 236.422 19.6704C243.303 20.3296 247.307 18.6814 254.938 11.8689C262.82 4.61684 266.698 4.8366 275.456 12.7479C282.587 19.2308 286.09 20.5494 294.097 19.6704C298.351 19.121 300.478 18.0222 305.858 12.9677C311.362 7.58359 312.864 6.81444 316.992 6.81444C320.871 6.81444 322.372 7.58359 326.751 11.8689C332.881 17.9123 337.135 20 343.14 20C349.145 20 353.399 17.9123 359.53 11.8689C366.661 4.8366 371.04 4.8366 378.796 11.8689C385.677 18.0222 389.806 20 395.936 20C401.566 20 405.945 17.6925 412.075 11.4294C415.829 7.58359 417.33 6.81444 421.083 6.81444C424.962 6.81444 426.713 7.80335 432.718 12.9677C438.724 18.132 440.725 19.2308 445.354 19.6704C452.235 20.3296 456.239 18.6814 463.871 11.8689C471.377 4.94648 476.006 4.94648 483.012 11.4294C490.018 18.0222 493.772 20 499.277 20C505.407 20 509.535 18.0222 516.166 11.8689C520.67 7.69347 522.422 6.81444 526.05 6.81444C529.803 6.81444 531.43 7.69347 535.683 11.8689C541.814 17.9123 546.067 20 552.073 20C558.078 20 562.332 17.9123 568.462 11.8689C575.593 4.8366 579.972 4.8366 587.729 11.8689C594.61 18.0222 598.738 20 604.869 20C610.373 20 614.502 17.8024 621.258 11.4294C628.514 4.61684 632.268 4.94648 642.276 13.4072C648.907 19.0111 650.784 20 654.537 20C656.101 20 657.359 19.851 658.259 19.553C659.716 19.3368 661.269 18.8978 662.725 18.24C664.602 17.361 668.605 14.3942 671.482 11.6472C678.739 4.94459 683.618 4.72483 690.374 10.7682C698.131 17.6906 701.884 19.7783 707.013 19.7783C713.394 19.7783 717.523 17.8005 723.778 11.6472C728.157 7.36194 729.658 6.59278 733.662 6.59278C737.665 6.59278 739.167 7.36194 743.295 11.2077C750.051 17.6906 754.18 19.7783 759.935 19.7783C765.69 19.7783 769.318 17.9104 776.449 11.3176C780.578 7.47182 782.204 6.59278 785.957 6.59278C789.836 6.59278 791.462 7.47182 795.841 11.6472C807.601 22.7451 817.235 22.6352 828.37 11.5374C832.623 7.36194 833.999 6.59278 838.003 6.59278C841.881 6.59278 843.508 7.47182 848.137 11.6472C860.397 22.6352 868.655 22.6352 880.415 11.6472C884.919 7.36194 886.545 6.59278 890.424 6.59278C894.427 6.59278 896.054 7.36194 901.058 12.0868C912.568 22.7451 920.95 22.6352 933.211 11.6472C940.968 4.50507 945.096 4.61495 953.354 12.0868C959.859 18.0203 963.613 19.7783 969.618 19.7783C974.872 19.7783 978 18.1302 984.631 11.9769C989.51 7.36194 991.012 6.59278 995.14 6.59278C999.144 6.59278 1000.64 7.36194 1005.02 11.6472C1016.16 22.6352 1024.92 22.7451 1036.68 12.1966C1045.18 4.61495 1049.19 4.50507 1057.07 11.6472C1069.33 22.6352 1077.46 22.7451 1088.97 12.1966C1094.1 7.47182 1095.85 6.59278 1099.61 6.59278C1103.36 6.59278 1105.11 7.47182 1110.24 12.1966C1121.75 22.7451 1130.13 22.6352 1141.89 11.6472C1149.27 4.83471 1154.03 4.72483 1161.29 11.0979C1169.67 18.4598 1172.17 19.7783 1177.42 19.7783C1183.93 19.7783 1186.68 18.4598 1193.56 11.9769C1198.44 7.36194 1199.94 6.59278 1204.07 6.59278C1208.08 6.59278 1209.58 7.36194 1213.96 11.6472C1220.21 17.8005 1224.34 19.7783 1230.6 19.7783C1235.98 19.7783 1239.35 18.0203 1246.73 11.3176C1248.65 9.58147 1250.37 8.31014 1252 7.50363V0.534018Z" fill="#292330"></path> <path fill-rule="evenodd" clip-rule="evenodd" d="M2500 0.534018C2496.16 1.46845 2492.65 3.73339 2487.73 8.1311C2479.97 15.1634 2475.59 15.1634 2468.46 8.1311C2462.33 2.08771 2458.08 7.91839e-08 2452.07 7.91839e-08C2446.07 7.91839e-08 2441.81 2.08771 2435.68 8.1311C2431.43 12.3065 2429.8 13.1856 2426.05 13.1856C2422.42 13.1856 2420.67 12.3065 2416.17 8.1311C2409.54 1.97784 2405.41 7.91839e-08 2399.28 7.91839e-08C2393.77 7.91839e-08 2390.02 1.97784 2383.01 8.57062C2376.01 15.0535 2371.38 15.0535 2363.87 8.1311C2356.24 1.31856 2352.24 -0.329639 2345.35 0.32964C2340.73 0.769158 2338.72 1.86796 2332.72 7.0323C2326.71 12.1966 2324.96 13.1856 2321.08 13.1856C2317.33 13.1856 2315.83 12.4164 2312.08 8.57062C2305.94 2.30747 2301.57 7.91839e-08 2295.94 7.91839e-08C2289.81 7.91839e-08 2285.68 1.97784 2278.8 8.1311C2271.04 15.1634 2266.66 15.1634 2259.53 8.1311C2253.4 2.08771 2249.15 7.91839e-08 2243.14 7.91839e-08C2237.14 7.91839e-08 2232.88 2.08771 2226.75 8.1311C2222.37 12.4164 2220.87 13.1856 2216.99 13.1856C2212.86 13.1856 2211.36 12.4164 2205.86 7.0323C2200.48 1.97784 2198.35 0.879038 2194.1 0.32964C2186.09 -0.549398 2182.59 0.769158 2175.46 7.25206C2166.7 15.1634 2162.82 15.3832 2154.94 8.1311C2147.31 1.31856 2143.3 -0.329639 2136.42 0.32964C2131.79 0.769158 2129.79 1.86796 2123.79 7.0323C2117.78 12.1966 2116.03 13.1856 2112.15 13.1856C2108.52 13.1856 2106.9 12.4164 2103.39 9.12002C2095.76 1.6482 2092.63 7.91839e-08 2085.88 7.91839e-08C2080 7.91839e-08 2079.25 0.32964 2071.87 6.59278C2061.86 15.0535 2058.1 15.3832 2050.85 8.57062C2044.09 2.19759 2039.96 7.91839e-08 2034.46 7.91839e-08C2028.2 7.91839e-08 2024.07 1.97784 2017.82 8.1311C2013.44 12.4164 2011.94 13.1856 2007.93 13.1856C2003.93 13.1856 2002.43 12.4164 1998.05 8.1311C1991.92 2.08771 1987.67 7.91839e-08 1981.66 7.91839e-08C1975.66 7.91839e-08 1972.78 1.42844 1965.9 7.80146C1958.02 15.1634 1953.76 15.2733 1946.01 8.1311C1939.12 1.97784 1935 7.91839e-08 1928.87 7.91839e-08C1923.36 7.91839e-08 1919.61 1.97784 1912.6 8.57062C1909.85 11.0979 1906.47 13.1856 1905.09 13.1856C1904.49 13.1856 1903.91 13.2794 1903.37 13.4464C1903.14 13.4206 1902.9 13.4072 1902.66 13.4072C1900.91 13.4072 1898.03 11.6491 1895.28 9.01203C1886.65 0.661171 1878.64 -1.75618 1871.01 1.75997C1869.13 2.63901 1865.13 5.60576 1862 8.35275C1854.5 15.1653 1849.99 15.2752 1842.73 8.68239C1835.35 1.97973 1831.98 0.221652 1826.6 0.221652C1820.34 0.221652 1816.21 2.19949 1809.96 8.35275C1805.58 12.6381 1804.08 13.4072 1800.07 13.4072C1795.94 13.4072 1794.44 12.6381 1789.56 8.02311C1782.68 1.54021 1779.93 0.221652 1773.42 0.221652C1768.17 0.221652 1765.67 1.54021 1757.29 8.90215C1750.03 15.2752 1745.28 15.1653 1737.89 8.35275C1726.13 -2.63522 1717.75 -2.7451 1706.24 7.80335C1701.11 12.5282 1699.36 13.4072 1695.61 13.4072C1691.85 13.4072 1690.1 12.5282 1684.97 7.80335C1673.46 -2.7451 1665.33 -2.63522 1653.07 8.35275C1645.19 15.4949 1641.18 15.3851 1632.68 7.80335C1620.92 -2.7451 1612.16 -2.63522 1601.02 8.35275C1596.64 12.6381 1595.14 13.4072 1591.14 13.4072C1587.01 13.4072 1585.51 12.6381 1580.63 8.02311C1574 1.86985 1570.87 0.221652 1565.62 0.221652C1559.61 0.221652 1555.86 1.97973 1549.35 7.91323C1541.1 15.3851 1536.97 15.4949 1529.21 8.35275C1516.95 -2.63522 1508.57 -2.7451 1497.06 7.91323C1492.05 12.6381 1490.43 13.4072 1486.42 13.4072C1482.54 13.4072 1480.92 12.6381 1476.41 8.35275C1464.65 -2.63522 1456.4 -2.63522 1444.14 8.35275C1439.51 12.5282 1437.88 13.4072 1434 13.4072C1430 13.4072 1428.62 12.6381 1424.37 8.46263C1413.23 -2.63522 1403.6 -2.7451 1391.84 8.35275C1387.46 12.5282 1385.84 13.4072 1381.96 13.4072C1378.2 13.4072 1376.58 12.5282 1372.45 8.68239C1365.32 2.08961 1361.69 0.221652 1355.93 0.221652C1350.18 0.221652 1346.05 2.30937 1339.3 8.79227C1335.17 12.6381 1333.67 13.4072 1329.66 13.4072C1325.66 13.4072 1324.16 12.6381 1319.78 8.35275C1313.52 2.19949 1309.39 0.221652 1303.01 0.221652C1297.88 0.221652 1294.13 2.30937 1286.37 9.23179C1279.62 15.2752 1274.74 15.0554 1267.48 8.35275C1264.61 5.60576 1260.6 2.63901 1258.72 1.75997C1254.35 -0.217866 1249.09 -0.217866 1248.22 1.86985C1247.21 4.06744 1249.84 6.81444 1253.09 6.81444C1254.47 6.81444 1257.85 8.90215 1260.6 11.4294C1267.61 18.0222 1271.36 20 1276.87 20C1283 20 1287.12 18.0222 1294.01 11.8689C1301.76 4.72672 1306.02 4.8366 1313.9 12.1985C1320.78 18.5716 1323.66 20 1329.66 20C1335.67 20 1339.92 17.9123 1346.05 11.8689C1350.43 7.58359 1351.93 6.81444 1355.93 6.81444C1359.94 6.81444 1361.44 7.58359 1365.82 11.8689C1372.07 18.0222 1376.2 20 1382.46 20C1387.96 20 1392.09 17.8024 1398.85 11.4294C1406.1 4.61684 1409.86 4.94648 1419.87 13.4072C1427.25 19.6704 1428 20 1433.88 20C1440.63 20 1443.76 18.3518 1451.39 10.88C1454.9 7.58359 1456.52 6.81444 1460.15 6.81444C1464.03 6.81444 1465.78 7.80335 1471.79 12.9677C1477.79 18.132 1479.79 19.2308 1484.42 19.6704C1491.3 20.3296 1495.31 18.6814 1502.94 11.8689C1510.82 4.61684 1514.7 4.8366 1523.46 12.7479C1530.59 19.2308 1534.09 20.5494 1542.1 19.6704C1546.35 19.121 1548.48 18.0222 1553.86 12.9677C1559.36 7.58359 1560.86 6.81444 1564.99 6.81444C1568.87 6.81444 1570.37 7.58359 1574.75 11.8689C1580.88 17.9123 1585.14 20 1591.14 20C1597.15 20 1601.4 17.9123 1607.53 11.8689C1614.66 4.8366 1619.04 4.8366 1626.8 11.8689C1633.68 18.0222 1637.81 20 1643.94 20C1649.57 20 1653.95 17.6925 1660.08 11.4294C1663.83 7.58359 1665.33 6.81444 1669.08 6.81444C1672.96 6.81444 1674.71 7.80335 1680.72 12.9677C1686.72 18.132 1688.73 19.2308 1693.35 19.6704C1700.24 20.3296 1704.24 18.6814 1711.87 11.8689C1719.38 4.94648 1724.01 4.94648 1731.01 11.4294C1738.02 18.0222 1741.77 20 1747.28 20C1753.41 20 1757.54 18.0222 1764.17 11.8689C1768.67 7.69347 1770.42 6.81444 1774.05 6.81444C1777.8 6.81444 1779.43 7.69347 1783.68 11.8689C1789.81 17.9123 1794.07 20 1800.07 20C1806.08 20 1810.33 17.9123 1816.46 11.8689C1823.59 4.8366 1827.97 4.8366 1835.73 11.8689C1842.61 18.0222 1846.74 20 1852.87 20C1858.37 20 1862.5 17.8024 1869.26 11.4294C1876.51 4.61684 1880.27 4.94648 1890.28 13.4072C1896.91 19.0111 1898.78 20 1902.54 20C1904.1 20 1905.36 19.851 1906.26 19.553C1907.72 19.3368 1909.27 18.8978 1910.72 18.24C1912.6 17.361 1916.6 14.3942 1919.48 11.6472C1926.74 4.94459 1931.62 4.72483 1938.37 10.7682C1946.13 17.6906 1949.88 19.7783 1955.01 19.7783C1961.39 19.7783 1965.52 17.8005 1971.78 11.6472C1976.16 7.36194 1977.66 6.59278 1981.66 6.59278C1985.66 6.59278 1987.17 7.36194 1991.29 11.2077C1998.05 17.6906 2002.18 19.7783 2007.93 19.7783C2013.69 19.7783 2017.32 17.9104 2024.45 11.3176C2028.58 7.47182 2030.2 6.59278 2033.96 6.59278C2037.84 6.59278 2039.46 7.47182 2043.84 11.6472C2055.6 22.7451 2065.23 22.6352 2076.37 11.5374C2080.62 7.36194 2082 6.59278 2086 6.59278C2089.88 6.59278 2091.51 7.47182 2096.14 11.6472C2108.4 22.6352 2116.65 22.6352 2128.41 11.6472C2132.92 7.36194 2134.55 6.59278 2138.42 6.59278C2142.43 6.59278 2144.05 7.36194 2149.06 12.0868C2160.57 22.7451 2168.95 22.6352 2181.21 11.6472C2188.97 4.50507 2193.1 4.61495 2201.35 12.0868C2207.86 18.0203 2211.61 19.7783 2217.62 19.7783C2222.87 19.7783 2226 18.1302 2232.63 11.9769C2237.51 7.36194 2239.01 6.59278 2243.14 6.59278C2247.14 6.59278 2248.64 7.36194 2253.02 11.6472C2264.16 22.6352 2272.92 22.7451 2284.68 12.1966C2293.18 4.61495 2297.19 4.50507 2305.07 11.6472C2317.33 22.6352 2325.46 22.7451 2336.97 12.1966C2342.1 7.47182 2343.85 6.59278 2347.61 6.59278C2351.36 6.59278 2353.11 7.47182 2358.24 12.1966C2369.75 22.7451 2378.13 22.6352 2389.89 11.6472C2397.27 4.83471 2402.03 4.72483 2409.29 11.0979C2417.67 18.4598 2420.17 19.7783 2425.42 19.7783C2431.93 19.7783 2434.68 18.4598 2441.56 11.9769C2446.44 7.36194 2447.94 6.59278 2452.07 6.59278C2456.08 6.59278 2457.58 7.36194 2461.96 11.6472C2468.21 17.8005 2472.34 19.7783 2478.6 19.7783C2483.98 19.7783 2487.35 18.0203 2494.73 11.3176C2496.65 9.58147 2498.37 8.31014 2500 7.50363V0.534018Z" fill="#292330"></path> </svg> 