<?xml version="1.0" encoding="UTF-8"?> <svg xmlns="http://www.w3.org/2000/svg" width="660" height="20" viewBox="0 0 660 20" fill="none"> <path d="M0.21572 1.86985C-0.785154 4.06744 1.84214 6.81444 5.09498 6.81444C6.47118 6.81444 9.84913 8.90215 12.6015 11.4294C19.6077 18.0222 23.3609 20 28.8657 20C34.9961 20 39.1247 18.0222 46.0057 11.8689C53.7625 4.72672 58.0162 4.8366 65.8981 12.1985C72.7791 18.5716 75.6566 20 81.6618 20C87.6671 20 91.9208 17.9123 98.0512 11.8689C102.43 7.58359 103.931 6.81444 107.935 6.81444C111.938 6.81444 113.44 7.58359 117.818 11.8689C124.074 18.0222 128.202 20 134.458 20C139.963 20 144.091 17.8024 150.847 11.4294C158.104 4.61684 161.857 4.94648 171.866 13.4072C179.247 19.6704 179.998 20 185.878 20C192.634 20 195.761 18.3518 203.393 10.88C206.896 7.58359 208.523 6.81444 212.151 6.81444C216.029 6.81444 217.781 7.80335 223.786 12.9677C229.791 18.132 231.793 19.2308 236.422 19.6704C243.303 20.3296 247.307 18.6814 254.938 11.8689C262.82 4.61684 266.698 4.8366 275.456 12.7479C282.587 19.2308 286.09 20.5494 294.097 19.6704C298.351 19.121 300.478 18.0222 305.858 12.9677C311.362 7.58359 312.864 6.81444 316.992 6.81444C320.871 6.81444 322.372 7.58359 326.751 11.8689C332.881 17.9123 337.135 20 343.14 20C349.145 20 353.399 17.9123 359.53 11.8689C366.661 4.8366 371.04 4.8366 378.796 11.8689C385.677 18.0222 389.806 20 395.936 20C401.566 20 405.945 17.6925 412.075 11.4294C415.829 7.58359 417.33 6.81444 421.083 6.81444C424.962 6.81444 426.713 7.80335 432.718 12.9677C438.724 18.132 440.725 19.2308 445.354 19.6704C452.235 20.3296 456.239 18.6814 463.871 11.8689C471.377 4.94648 476.006 4.94648 483.012 11.4294C490.018 18.0222 493.772 20 499.277 20C505.407 20 509.535 18.0222 516.166 11.8689C520.67 7.69347 522.422 6.81444 526.05 6.81444C529.803 6.81444 531.43 7.69347 535.683 11.8689C541.814 17.9123 546.067 20 552.073 20C558.078 20 562.332 17.9123 568.462 11.8689C575.593 4.8366 579.972 4.8366 587.729 11.8689C594.61 18.0222 598.738 20 604.869 20C610.374 20 614.502 17.8024 621.258 11.4294C628.514 4.61684 632.268 4.94648 642.276 13.4072C648.907 19.0111 650.784 20 654.537 20C657.54 20 659.416 19.4506 659.792 18.3518C660.793 16.0443 658.04 13.4072 654.662 13.4072C652.911 13.4072 650.033 11.6491 647.281 9.01203C638.648 0.661171 630.641 -1.75618 623.01 1.75997C621.133 2.63901 617.129 5.60576 614.002 8.35275C606.495 15.1653 601.991 15.2752 594.735 8.68239C587.353 1.97973 583.975 0.221653 578.596 0.221653C572.34 0.221653 568.212 2.19949 561.956 8.35275C557.577 12.6381 556.076 13.4072 552.073 13.4072C547.944 13.4072 546.443 12.6381 541.563 8.02311C534.682 1.54021 531.93 0.221653 525.424 0.221653C520.17 0.221653 517.668 1.54021 509.285 8.90215C502.029 15.2752 497.275 15.1653 489.893 8.35275C478.133 -2.63522 469.751 -2.7451 458.241 7.80335C453.111 12.5282 451.36 13.4072 447.606 13.4072C443.853 13.4072 442.102 12.5282 436.972 7.80335C425.462 -2.7451 417.33 -2.63522 405.069 8.35275C397.187 15.4949 393.184 15.3851 384.676 7.80335C372.916 -2.7451 364.159 -2.63522 353.024 8.35275C348.645 12.6381 347.144 13.4072 343.14 13.4072C339.012 13.4072 337.51 12.6381 332.631 8.02311C326 1.86985 322.872 0.221653 317.618 0.221653C311.613 0.221653 307.859 1.97973 301.354 7.91323C293.096 15.3851 288.968 15.4949 281.211 8.35275C268.95 -2.63522 260.568 -2.7451 249.058 7.91323C244.054 12.6381 242.427 13.4072 238.424 13.4072C234.545 13.4072 232.919 12.6381 228.415 8.35275C216.655 -2.63522 208.398 -2.63522 196.137 8.35275C191.508 12.5282 189.881 13.4072 186.003 13.4072C181.999 13.4072 180.623 12.6381 176.37 8.46263C165.235 -2.63522 155.601 -2.7451 143.841 8.35275C139.462 12.5282 137.836 13.4072 133.958 13.4072C130.204 13.4072 128.578 12.5282 124.449 8.68239C117.318 2.08961 113.69 0.221653 107.935 0.221653C102.18 0.221653 98.0512 2.30937 91.2953 8.79227C87.1666 12.6381 85.6653 13.4072 81.6618 13.4072C77.6583 13.4072 76.157 12.6381 71.7782 8.35275C65.5228 2.19949 61.3941 0.221653 55.0136 0.221653C49.8841 0.221653 46.1308 2.30937 38.374 9.23179C31.6181 15.2752 26.7389 15.0554 19.4825 8.35275C16.605 5.60576 12.6015 2.63901 10.7249 1.75997C6.34607 -0.217867 1.09149 -0.217867 0.21572 1.86985Z" fill="#292330"></path> </svg> 