<?xml version="1.0" encoding="UTF-8"?> <svg xmlns="http://www.w3.org/2000/svg" width="528" height="20" viewBox="0 0 528 20" fill="none"> <path d="M0.172576 1.86985C-0.628123 4.06744 1.47371 6.81444 4.07598 6.81444C5.17695 6.81444 7.87931 8.90215 10.0812 11.4294C15.6861 18.0222 18.6887 20 23.0926 20C27.9969 20 31.2998 18.0222 36.8046 11.8689C43.01 4.72672 46.413 4.8366 52.7185 12.1985C58.2233 18.5716 60.5253 20 65.3295 20C70.1337 20 73.5366 17.9123 78.4409 11.8689C81.944 7.58359 83.145 6.81444 86.3478 6.81444C89.5506 6.81444 90.7517 7.58359 94.2547 11.8689C99.2591 18.0222 102.562 20 107.566 20C111.97 20 115.273 17.8024 120.678 11.4294C126.483 4.61684 129.486 4.94648 137.492 13.4072C143.398 19.6704 143.998 20 148.702 20C154.107 20 156.609 18.3518 162.715 10.88C165.517 7.58359 166.818 6.81444 169.721 6.81444C172.823 6.81444 174.225 7.80335 179.029 12.9677C183.833 18.132 185.434 19.2308 189.138 19.6704C194.642 20.3296 197.845 18.6814 203.951 11.8689C210.256 4.61684 213.359 4.8366 220.365 12.7479C226.07 19.2308 228.872 20.5494 235.278 19.6704C238.681 19.121 240.382 18.0222 244.686 12.9677C249.09 7.58359 250.291 6.81444 253.594 6.81444C256.697 6.81444 257.898 7.58359 261.401 11.8689C266.305 17.9123 269.708 20 274.512 20C279.316 20 282.719 17.9123 287.624 11.8689C293.329 4.8366 296.832 4.8366 303.037 11.8689C308.542 18.0222 311.845 20 316.749 20C321.253 20 324.756 17.6925 329.66 11.4294C332.663 7.58359 333.864 6.81444 336.867 6.81444C339.969 6.81444 341.371 7.80335 346.175 12.9677C350.979 18.132 352.58 19.2308 356.284 19.6704C361.788 20.3296 364.991 18.6814 371.096 11.8689C377.102 4.94648 380.805 4.94648 386.41 11.4294C392.015 18.0222 395.017 20 399.421 20C404.326 20 407.628 18.0222 412.933 11.8689C416.536 7.69347 417.937 6.81444 420.84 6.81444C423.843 6.81444 425.144 7.69347 428.547 11.8689C433.451 17.9123 436.854 20 441.658 20C446.462 20 449.865 17.9123 454.77 11.8689C460.475 4.8366 463.978 4.8366 470.183 11.8689C475.688 18.0222 478.991 20 483.895 20C488.299 20 491.602 17.8024 497.006 11.4294C502.811 4.61684 505.814 4.94648 513.821 13.4072C519.126 19.0111 520.627 20 523.63 20C526.032 20 527.533 19.4506 527.833 18.3518C528.634 16.0443 526.432 13.4072 523.73 13.4072C522.329 13.4072 520.027 11.6491 517.825 9.01203C510.919 0.661171 504.513 -1.75618 498.408 1.75997C496.906 2.63901 493.704 5.60576 491.201 8.35275C485.196 15.1653 481.593 15.2752 475.788 8.68239C469.883 1.97973 467.18 0.221653 462.877 0.221653C457.872 0.221653 454.569 2.19949 449.565 8.35275C446.062 12.6381 444.861 13.4072 441.658 13.4072C438.355 13.4072 437.154 12.6381 433.251 8.02311C427.746 1.54021 425.544 0.221653 420.339 0.221653C416.136 0.221653 414.134 1.54021 407.428 8.90215C401.623 15.2752 397.82 15.1653 391.915 8.35275C382.506 -2.63522 375.801 -2.7451 366.593 7.80335C362.489 12.5282 361.088 13.4072 358.085 13.4072C355.083 13.4072 353.681 12.5282 349.578 7.80335C340.37 -2.7451 333.864 -2.63522 324.055 8.35275C317.75 15.4949 314.547 15.3851 307.741 7.80335C298.333 -2.7451 291.327 -2.63522 282.419 8.35275C278.916 12.6381 277.715 13.4072 274.512 13.4072C271.209 13.4072 270.008 12.6381 266.105 8.02311C260.8 1.86985 258.298 0.221653 254.094 0.221653C249.29 0.221653 246.288 1.97973 241.083 7.91323C234.477 15.3851 231.174 15.4949 224.969 8.35275C215.16 -2.63522 208.454 -2.7451 199.246 7.91323C195.243 12.6381 193.942 13.4072 190.739 13.4072C187.636 13.4072 186.335 12.6381 182.732 8.35275C173.324 -2.63522 166.718 -2.63522 156.909 8.35275C153.206 12.5282 151.905 13.4072 148.802 13.4072C145.6 13.4072 144.499 12.6381 141.096 8.46263C132.188 -2.63522 124.481 -2.7451 115.073 8.35275C111.57 12.5282 110.269 13.4072 107.166 13.4072C104.163 13.4072 102.862 12.5282 99.5594 8.68239C93.8544 2.08961 90.9519 0.221653 86.3478 0.221653C81.7438 0.221653 78.4409 2.30937 73.0362 8.79227C69.7333 12.6381 68.5323 13.4072 65.3295 13.4072C62.1267 13.4072 60.9256 12.6381 57.4226 8.35275C52.4182 2.19949 49.1153 0.221653 44.0109 0.221653C39.9073 0.221653 36.9047 2.30937 30.6992 9.23179C25.2945 15.2752 21.3911 15.0554 15.586 8.35275C13.284 5.60576 10.0812 2.63901 8.57992 1.75997C5.07686 -0.217867 0.873188 -0.217867 0.172576 1.86985Z" fill="#292330"></path> </svg> 