<?xml version="1.0" encoding="UTF-8"?> <svg xmlns="http://www.w3.org/2000/svg" width="568" height="20" viewBox="0 0 568 20" fill="none"> <path d="M0.18565 1.86985C-0.675708 4.06744 1.58536 6.81444 4.38477 6.81444C5.56914 6.81444 8.47622 8.90215 10.845 11.4294C16.8745 18.0222 20.1046 20 24.842 20C30.1178 20 33.6709 18.0222 39.5928 11.8689C46.2683 4.72672 49.9291 4.8366 56.7123 12.1985C62.6341 18.5716 65.1105 20 70.2787 20C75.4468 20 79.1076 17.9123 84.3834 11.8689C88.1519 7.58359 89.4439 6.81444 92.8893 6.81444C96.3348 6.81444 97.6268 7.58359 101.395 11.8689C106.779 18.0222 110.332 20 115.715 20C120.453 20 124.006 17.8024 129.82 11.4294C136.065 4.61684 139.295 4.94648 147.909 13.4072C154.261 19.6704 154.907 20 159.968 20C165.782 20 168.474 18.3518 175.041 10.88C178.056 7.58359 179.456 6.81444 182.578 6.81444C185.916 6.81444 187.423 7.80335 192.592 12.9677C197.76 18.132 199.482 19.2308 203.466 19.6704C209.388 20.3296 212.833 18.6814 219.401 11.8689C226.185 4.61684 229.522 4.8366 237.059 12.7479C243.196 19.2308 246.211 20.5494 253.102 19.6704C256.763 19.121 258.593 18.0222 263.223 12.9677C267.96 7.58359 269.252 6.81444 272.806 6.81444C276.143 6.81444 277.435 7.58359 281.204 11.8689C286.48 17.9123 290.14 20 295.309 20C300.477 20 304.137 17.9123 309.413 11.8689C315.55 4.8366 319.319 4.8366 325.994 11.8689C331.916 18.0222 335.469 20 340.745 20C345.59 20 349.359 17.6925 354.635 11.4294C357.865 7.58359 359.157 6.81444 362.387 6.81444C365.725 6.81444 367.232 7.80335 372.4 12.9677C377.568 18.132 379.291 19.2308 383.275 19.6704C389.197 20.3296 392.642 18.6814 399.21 11.8689C405.67 4.94648 409.654 4.94648 415.683 11.4294C421.713 18.0222 424.943 20 429.68 20C434.956 20 438.509 18.0222 444.216 11.8689C448.092 7.69347 449.599 6.81444 452.722 6.81444C455.952 6.81444 457.352 7.69347 461.012 11.8689C466.288 17.9123 469.949 20 475.117 20C480.285 20 483.946 17.9123 489.222 11.8689C495.359 4.8366 499.127 4.8366 505.803 11.8689C511.725 18.0222 515.278 20 520.554 20C525.291 20 528.844 17.8024 534.658 11.4294C540.903 4.61684 544.133 4.94648 552.747 13.4072C558.453 19.0111 560.068 20 563.299 20C565.883 20 567.498 19.4506 567.821 18.3518C568.682 16.0443 566.313 13.4072 563.406 13.4072C561.899 13.4072 559.422 11.6491 557.054 9.01203C549.625 0.661171 542.734 -1.75618 536.166 1.75997C534.551 2.63901 531.105 5.60576 528.414 8.35275C521.953 15.1653 518.077 15.2752 511.832 8.68239C505.48 1.97973 502.573 0.221653 497.943 0.221653C492.56 0.221653 489.006 2.19949 483.623 8.35275C479.854 12.6381 478.562 13.4072 475.117 13.4072C471.564 13.4072 470.272 12.6381 466.073 8.02311C460.151 1.54021 457.782 0.221653 452.183 0.221653C447.661 0.221653 445.508 1.54021 438.294 8.90215C432.049 15.2752 427.958 15.1653 421.605 8.35275C411.484 -2.63522 404.27 -2.7451 394.365 7.80335C389.95 12.5282 388.443 13.4072 385.213 13.4072C381.983 13.4072 380.475 12.5282 376.061 7.80335C366.155 -2.7451 359.157 -2.63522 348.605 8.35275C341.822 15.4949 338.376 15.3851 331.055 7.80335C320.934 -2.7451 313.397 -2.63522 303.814 8.35275C300.046 12.6381 298.754 13.4072 295.309 13.4072C291.755 13.4072 290.463 12.6381 286.264 8.02311C280.558 1.86985 277.866 0.221653 273.344 0.221653C268.176 0.221653 264.946 1.97973 259.347 7.91323C252.241 15.3851 248.688 15.4949 242.012 8.35275C231.46 -2.63522 224.246 -2.7451 214.341 7.91323C210.034 12.6381 208.634 13.4072 205.189 13.4072C201.851 13.4072 200.451 12.6381 196.575 8.35275C186.454 -2.63522 179.348 -2.63522 168.797 8.35275C164.813 12.5282 163.413 13.4072 160.075 13.4072C156.63 13.4072 155.445 12.6381 151.785 8.46263C142.202 -2.63522 133.912 -2.7451 123.791 8.35275C120.022 12.5282 118.622 13.4072 115.285 13.4072C112.055 13.4072 110.655 12.5282 107.102 8.68239C100.965 2.08961 97.8421 0.221653 92.8893 0.221653C87.9365 0.221653 84.3834 2.30937 78.5692 8.79227C75.0161 12.6381 73.7241 13.4072 70.2787 13.4072C66.8332 13.4072 65.5412 12.6381 61.7728 8.35275C56.3893 2.19949 52.8362 0.221653 47.345 0.221653C42.9305 0.221653 39.7005 2.30937 33.0249 9.23179C27.2108 15.2752 23.0116 15.0554 16.7668 8.35275C14.2904 5.60576 10.845 2.63901 9.22991 1.75997C5.46147 -0.217867 0.939339 -0.217867 0.18565 1.86985Z" fill="#292330"></path> </svg> 